$MeshFormat
4.1 0 8
$EndMeshFormat
$PhysicalNames
21
0 10 "PointsFree"
0 11 "PointsFixed"
1 20 "CurveBottomBack"
1 21 "CurveBackRight"
1 22 "CurveTopBack"
1 23 "CurveBackLeft"
1 24 "CurveBottomLeft"
1 25 "CurveBottomRight"
1 26 "CurveBottomFront"
1 27 "CurveTopRight"
1 28 "CurveFrontRight"
1 29 "CurveTopLeft"
1 30 "CurveTopFront"
1 31 "CurveFrontLeft"
2 50 "SurfaceBack"
2 51 "SurfaceBottom"
2 52 "SurfaceRight"
2 53 "SurfaceTop"
2 54 "SurfaceLeft"
2 55 "SurfaceFront"
3 100 "VolumeCube"
$EndPhysicalNames
$Entities
8 12 6 1
1 0 0 0 1 11 
2 1000 0 0 1 10 
3 1000 1000 0 1 10 
4 0 1000 0 1 10 
5 0 0 1000 1 10 
6 1000 0 1000 1 10 
7 1000 1000 1000 1 10 
8 0 1000 1000 1 10 
1 -1.000000224848918e-07 -1e-07 -1e-07 1000.0000001 1e-07 1e-07 1 20 2 1 -2 
2 999.9999999 -1.000000224848918e-07 -1e-07 1000.0000001 1000.0000001 1e-07 1 21 2 2 -3 
3 -1.000000224848918e-07 999.9999999 -1e-07 1000.0000001 1000.0000001 1e-07 1 22 2 3 -4 
4 -1e-07 -1.000000224848918e-07 -1e-07 1e-07 1000.0000001 1e-07 1 23 2 4 -1 
5 -1e-07 -1e-07 -1.000000224848918e-07 1e-07 1e-07 1000.0000001 1 24 2 1 -5 
6 999.9999999 -1e-07 -1.000000224848918e-07 1000.0000001 1e-07 1000.0000001 1 25 2 2 -6 
7 -1.000000224848918e-07 -1e-07 999.9999999 1000.0000001 1e-07 1000.0000001 1 26 2 5 -6 
8 999.9999999 999.9999999 -1.000000224848918e-07 1000.0000001 1000.0000001 1000.0000001 1 27 2 3 -7 
9 999.9999999 -1.000000224848918e-07 999.9999999 1000.0000001 1000.0000001 1000.0000001 1 28 2 6 -7 
10 -1e-07 999.9999999 -1.000000224848918e-07 1e-07 1000.0000001 1000.0000001 1 29 2 4 -8 
11 -1.000000224848918e-07 999.9999999 999.9999999 1000.0000001 1000.0000001 1000.0000001 1 30 2 7 -8 
12 -1e-07 -1.000000224848918e-07 999.9999999 1e-07 1000.0000001 1000.0000001 1 31 2 8 -5 
1 -1.000000224848918e-07 -1.000000224848918e-07 -1e-07 1000.0000001 1000.0000001 1e-07 1 50 4 1 2 3 4 
2 -1.000000224848918e-07 -1e-07 -1.000000224848918e-07 1000.0000001 1e-07 1000.0000001 1 51 4 5 7 -6 -1 
3 999.9999999 -1.000000224848918e-07 -1.000000224848918e-07 1000.0000001 1000.0000001 1000.0000001 1 52 4 6 9 -8 -2 
4 -1.000000224848918e-07 999.9999999 -1.000000224848918e-07 1000.0000001 1000.0000001 1000.0000001 1 53 4 8 11 -10 -3 
5 -1e-07 -1.000000224848918e-07 -1.000000224848918e-07 1e-07 1000.0000001 1000.0000001 1 54 4 10 12 -5 -4 
6 -1.000000224848918e-07 -1.000000224848918e-07 999.9999999 1000.0000001 1000.0000001 1000.0000001 1 55 4 7 9 11 12 
1 -1.000000224848918e-07 -1.000000224848918e-07 -1.000000224848918e-07 1000.0000001 1000.0000001 1000.0000001 1 100 6 -2 -3 -4 -5 -1 6 
$EndEntities
$Nodes
27 1331 1 1331
0 1 0 1
1
0 0 0
0 2 0 1
2
1000 0 0
0 3 0 1
3
1000 1000 0
0 4 0 1
4
0 1000 0
0 5 0 1
5
0 0 1000
0 6 0 1
6
1000 0 1000
0 7 0 1
7
1000 1000 1000
0 8 0 1
8
0 1000 1000
1 1 0 9
9
10
11
12
13
14
15
16
17
100 0 0
200 0 0
300 0 0
400 0 0
500.0000000000001 0 0
600.0000000000001 0 0
700 0 0
800 0 0
900 0 0
1 2 0 9
18
19
20
21
22
23
24
25
26
1000 100 0
1000 200 0
1000 300 0
1000 400 0
1000 500.0000000000001 0
1000 600.0000000000001 0
1000 700 0
1000 800 0
1000 900 0
1 3 0 9
27
28
29
30
31
32
33
34
35
900 1000 0
800 1000 0
700 1000 0
600 1000 0
499.9999999999999 1000 0
399.9999999999999 1000 0
300 1000 0
200 1000 0
100 1000 0
1 4 0 9
36
37
38
39
40
41
42
43
44
0 900 0
0 800 0
0 700 0
0 600 0
0 499.9999999999999 0
0 399.9999999999999 0
0 300 0
0 200 0
0 100 0
1 5 0 9
45
46
47
48
49
50
51
52
53
0 0 100
0 0 200
0 0 300
0 0 400
0 0 500
0 0 600
0 0 700
0 0 800
0 0 900
1 6 0 9
54
55
56
57
58
59
60
61
62
1000 0 100
1000 0 200
1000 0 300
1000 0 400
1000 0 500
1000 0 600
1000 0 700
1000 0 800
1000 0 900
1 7 0 9
63
64
65
66
67
68
69
70
71
100 0 1000
200 0 1000
300 0 1000
400 0 1000
500.0000000000001 0 1000
600.0000000000001 0 1000
700 0 1000
800 0 1000
900 0 1000
1 8 0 9
72
73
74
75
76
77
78
79
80
1000 1000 100
1000 1000 200
1000 1000 300
1000 1000 400
1000 1000 500
1000 1000 600
1000 1000 700
1000 1000 800
1000 1000 900
1 9 0 9
81
82
83
84
85
86
87
88
89
1000 100 1000
1000 200 1000
1000 300 1000
1000 400 1000
1000 500.0000000000001 1000
1000 600.0000000000001 1000
1000 700 1000
1000 800 1000
1000 900 1000
1 10 0 9
90
91
92
93
94
95
96
97
98
0 1000 100
0 1000 200
0 1000 300
0 1000 400
0 1000 500
0 1000 600
0 1000 700
0 1000 800
0 1000 900
1 11 0 9
99
100
101
102
103
104
105
106
107
900 1000 1000
800 1000 1000
700 1000 1000
600 1000 1000
499.9999999999999 1000 1000
399.9999999999999 1000 1000
300 1000 1000
200 1000 1000
100 1000 1000
1 12 0 9
108
109
110
111
112
113
114
115
116
0 900 1000
0 800 1000
0 700 1000
0 600 1000
0 499.9999999999999 1000
0 399.9999999999999 1000
0 300 1000
0 200 1000
0 100 1000
2 1 0 81
117
118
119
120
121
122
123
124
125
126
127
128
129
130
131
132
133
134
135
136
137
138
139
140
141
142
143
144
145
146
147
148
149
150
151
152
153
154
155
156
157
158
159
160
161
162
163
164
165
166
167
168
169
170
171
172
173
174
175
176
177
178
179
180
181
182
183
184
185
186
187
188
189
190
191
192
193
194
195
196
197
200.0000000000001 200.0000000000001 0
200.0000000000001 399.9999999999999 0
200 600 0
200 799.9999999999999 0
399.9999999999999 200.0000000000001 0
399.9999999999999 399.9999999999999 0
399.9999999999999 600.0000000000001 0
399.9999999999999 800 0
600.0000000000001 200 0
600.0000000000001 399.9999999999999 0
600 600 0
600 800 0
800 200.0000000000001 0
800 400 0
800 600.0000000000001 0
800 800 0
200 100 0
100 200 0
100 100 0
200.0000000000001 299.9999999999999 0
100 399.9999999999999 0
100 300 0
200 499.9999999999999 0
100 600 0
100 499.9999999999999 0
200 700 0
100 800 0
100 700 0
200 900 0
100 900 0
400 100 0
300 200.0000000000001 0
300 100 0
399.9999999999999 300 0
300 399.9999999999999 0
300 299.9999999999999 0
399.9999999999999 500 0
299.9999999999999 600 0
299.9999999999999 500 0
399.9999999999999 700 0
299.9999999999999 799.9999999999999 0
299.9999999999999 700 0
399.9999999999999 900 0
300 900 0
600.0000000000001 100 0
500.0000000000001 200 0
500.0000000000001 100 0
600.0000000000001 299.9999999999999 0
500 399.9999999999999 0
500.0000000000001 300 0
600.0000000000001 500 0
500 600 0
500 500 0
600 700 0
499.9999999999999 800 0
500 700 0
600 900 0
499.9999999999999 900 0
800 100 0
700 200 0
700 100 0
800 300 0
700 399.9999999999999 0
700 300 0
800 500.0000000000001 0
700 600.0000000000001 0
700 500 0
800 700 0
700 800 0
700 700 0
800 900 0
700 900 0
900 200 0
900 100 0
900 400 0
900 300 0
900 600.0000000000001 0
900 500.0000000000001 0
900 800 0
900 700 0
900 900 0
2 2 0 81
198
199
200
201
202
203
204
205
206
207
208
209
210
211
212
213
214
215
216
217
218
219
220
221
222
223
224
225
226
227
228
229
230
231
232
233
234
235
236
237
238
239
240
241
242
243
244
245
246
247
248
249
250
251
252
253
254
255
256
257
258
259
260
261
262
263
264
265
266
267
268
269
270
271
272
273
274
275
276
277
278
200 0 200
200 0 400
200 0 600
200 0 800
400 0 200
400 0 400
400 0 600
400 0 800
600.0000000000001 0 200
600.0000000000001 0 400
600.0000000000001 0 600
600.0000000000001 0 800
800 0 200
800 0 400
800 0 600
800 0 800
200 0 100
100 0 200
100 0 100
200 0 300
100 0 400
100 0 300
200 0 500
100 0 600
100 0 500
200 0 700
100 0 800
100 0 700
200 0 900
100 0 900
400 0 100
300 0 200
300 0 100
400 0 300
300 0 400
300 0 300
400 0 500
300 0 600
300 0 500
400 0 700
300 0 800
300 0 700
400 0 900
300 0 900
600.0000000000001 0 100
500.0000000000001 0 200
500.0000000000001 0 100
600.0000000000001 0 300
500.0000000000001 0 400
500.0000000000001 0 300
600.0000000000001 0 500
500.0000000000001 0 600
500.0000000000001 0 500
600.0000000000001 0 700
500.0000000000001 0 800
500.0000000000001 0 700
600.0000000000001 0 900
500.0000000000001 0 900
800 0 100
700 0 200
700 0 100
800 0 300
700 0 400
700 0 300
800 0 500
700 0 600
700 0 500
800 0 700
700 0 800
700 0 700
800 0 900
700 0 900
900 0 200
900 0 100
900 0 400
900 0 300
900 0 600
900 0 500
900 0 800
900 0 700
900 0 900
2 3 0 81
279
280
281
282
283
284
285
286
287
288
289
290
291
292
293
294
295
296
297
298
299
300
301
302
303
304
305
306
307
308
309
310
311
312
313
314
315
316
317
318
319
320
321
322
323
324
325
326
327
328
329
330
331
332
333
334
335
336
337
338
339
340
341
342
343
344
345
346
347
348
349
350
351
352
353
354
355
356
357
358
359
1000 200 200
1000 200 400
1000 200 600
1000 200 800
1000 400 200
1000 400 400
1000 400 600
1000 400 800
1000 600.0000000000001 200
1000 600.0000000000001 400
1000 600.0000000000001 600
1000 600.0000000000001 800
1000 800 200
1000 800 400
1000 800 600
1000 800 800
1000 200 100
1000 100 200
1000 100 100
1000 200 300
1000 100 400
1000 100 300
1000 200 500
1000 100 600
1000 100 500
1000 200 700
1000 100 800
1000 100 700
1000 200 900
1000 100 900
1000 400 100
1000 300 200
1000 300 100
1000 400 300
1000 300 400
1000 300 300
1000 400 500
1000 300 600
1000 300 500
1000 400 700
1000 300 800
1000 300 700
1000 400 900
1000 300 900
1000 600.0000000000001 100
1000 500.0000000000001 200
1000 500.0000000000001 100
1000 600.0000000000001 300
1000 500.0000000000001 400
1000 500.0000000000001 300
1000 600.0000000000001 500
1000 500.0000000000001 600
1000 500.0000000000001 500
1000 600.0000000000001 700
1000 500.0000000000001 800
1000 500.0000000000001 700
1000 600.0000000000001 900
1000 500.0000000000001 900
1000 800 100
1000 700 200
1000 700 100
1000 800 300
1000 700 400
1000 700 300
1000 800 500
1000 700 600
1000 700 500
1000 800 700
1000 700 800
1000 700 700
1000 800 900
1000 700 900
1000 900 200
1000 900 100
1000 900 400
1000 900 300
1000 900 600
1000 900 500
1000 900 800
1000 900 700
1000 900 900
2 4 0 81
360
361
362
363
364
365
366
367
368
369
370
371
372
373
374
375
376
377
378
379
380
381
382
383
384
385
386
387
388
389
390
391
392
393
394
395
396
397
398
399
400
401
402
403
404
405
406
407
408
409
410
411
412
413
414
415
416
417
418
419
420
421
422
423
424
425
426
427
428
429
430
431
432
433
434
435
436
437
438
439
440
800 1000 200
800 1000 400
800 1000 600
800 1000 800
600 1000 200
600 1000 400
600 1000 600
600 1000 800
399.9999999999999 1000 200
399.9999999999999 1000 400
399.9999999999999 1000 600
399.9999999999999 1000 800
200 1000 200
200 1000 400
200 1000 600
200 1000 800
800 1000 100
900 1000 200
900 1000 100
800 1000 300
900 1000 400
900 1000 300
800 1000 500
900 1000 600
900 1000 500
800 1000 700
900 1000 800
900 1000 700
800 1000 900
900 1000 900
600 1000 100
700 1000 200
700 1000 100
600 1000 300
700 1000 400
700 1000 300
600 1000 500
700 1000 600
700 1000 500
600 1000 700
700 1000 800
700 1000 700
600 1000 900
700 1000 900
399.9999999999999 1000 100
499.9999999999999 1000 200
499.9999999999999 1000 100
399.9999999999999 1000 300
499.9999999999999 1000 400
499.9999999999999 1000 300
399.9999999999999 1000 500
499.9999999999999 1000 600
499.9999999999999 1000 500
399.9999999999999 1000 700
499.9999999999999 1000 800
499.9999999999999 1000 700
399.9999999999999 1000 900
499.9999999999999 1000 900
200 1000 100
300 1000 200
300 1000 100
200 1000 300
300 1000 400
300 1000 300
200 1000 500
300 1000 600
300 1000 500
200 1000 700
300 1000 800
300 1000 700
200 1000 900
300 1000 900
100 1000 200
100 1000 100
100 1000 400
100 1000 300
100 1000 600
100 1000 500
100 1000 800
100 1000 700
100 1000 900
2 5 0 81
441
442
443
444
445
446
447
448
449
450
451
452
453
454
455
456
457
458
459
460
461
462
463
464
465
466
467
468
469
470
471
472
473
474
475
476
477
478
479
480
481
482
483
484
485
486
487
488
489
490
491
492
493
494
495
496
497
498
499
500
501
502
503
504
505
506
507
508
509
510
511
512
513
514
515
516
517
518
519
520
521
0 800 200
0 800 400
0 800 600
0 800 800
0 600 200
0 600 400
0 600 600
0 600 800
0 399.9999999999999 200
0 399.9999999999999 400
0 399.9999999999999 600
0 399.9999999999999 800
0 200 200
0 200 400
0 200 600
0 200 800
0 800 100
0 900 200
0 900 100
0 800 300
0 900 400
0 900 300
0 800 500
0 900 600
0 900 500
0 800 700
0 900 800
0 900 700
0 800 900
0 900 900
0 600 100
0 700 200
0 700 100
0 600 300
0 700 400
0 700 300
0 600 500
0 700 600
0 700 500
0 600 700
0 700 800
0 700 700
0 600 900
0 700 900
0 399.9999999999999 100
0 499.9999999999999 200
0 499.9999999999999 100
0 399.9999999999999 300
0 499.9999999999999 400
0 499.9999999999999 300
0 399.9999999999999 500
0 499.9999999999999 600
0 499.9999999999999 500
0 399.9999999999999 700
0 499.9999999999999 800
0 499.9999999999999 700
0 399.9999999999999 900
0 499.9999999999999 900
0 200 100
0 300 200
0 300 100
0 200 300
0 300 400
0 300 300
0 200 500
0 300 600
0 300 500
0 200 700
0 300 800
0 300 700
0 200 900
0 300 900
0 100 200
0 100 100
0 100 400
0 100 300
0 100 600
0 100 500
0 100 800
0 100 700
0 100 900
2 6 0 81
522
523
524
525
526
527
528
529
530
531
532
533
534
535
536
537
538
539
540
541
542
543
544
545
546
547
548
549
550
551
552
553
554
555
556
557
558
559
560
561
562
563
564
565
566
567
568
569
570
571
572
573
574
575
576
577
578
579
580
581
582
583
584
585
586
587
588
589
590
591
592
593
594
595
596
597
598
599
600
601
602
200.0000000000001 200.0000000000001 1000
200.0000000000001 399.9999999999999 1000
200 600 1000
200 799.9999999999999 1000
399.9999999999999 200.0000000000001 1000
399.9999999999999 399.9999999999999 1000
399.9999999999999 600.0000000000001 1000
399.9999999999999 800 1000
600.0000000000001 200 1000
600.0000000000001 399.9999999999999 1000
600 600 1000
600 800 1000
800 200.0000000000001 1000
800 400 1000
800 600.0000000000001 1000
800 800 1000
200 100 1000
100 200 1000
100 100 1000
200.0000000000001 300 1000
100 399.9999999999999 1000
100 300 1000
200 499.9999999999999 1000
100 600 1000
100 499.9999999999999 1000
200 700 1000
100 800 1000
100 700 1000
200 900 1000
100 900 1000
400 100 1000
300 200.0000000000001 1000
300 100 1000
399.9999999999999 300 1000
300 399.9999999999999 1000
300 300 1000
399.9999999999999 500 1000
300 600 1000
299.9999999999999 500 1000
399.9999999999999 700 1000
299.9999999999999 800 1000
300 700 1000
399.9999999999999 900 1000
300 900 1000
600.0000000000001 100 1000
500 200 1000
500.0000000000001 100 1000
600.0000000000001 299.9999999999999 1000
500 399.9999999999999 1000
500 299.9999999999999 1000
600 499.9999999999999 1000
500 600 1000
500 500 1000
600 700 1000
499.9999999999999 800 1000
499.9999999999999 700 1000
600 900 1000
499.9999999999999 900 1000
800 100 1000
700 200 1000
700 100 1000
800 300 1000
700 399.9999999999999 1000
700 300 1000
800 500.0000000000001 1000
700 600 1000
700 500 1000
800 700 1000
700 800 1000
700 700 1000
800 900 1000
700 900 1000
900 200 1000
900 100 1000
900 400 1000
900 300 1000
900 600.0000000000001 1000
900 500.0000000000001 1000
900 800 1000
900 700 1000
900 900 1000
3 1 0 729
603
604
605
606
607
608
609
610
611
612
613
614
615
616
617
618
619
620
621
622
623
624
625
626
627
628
629
630
631
632
633
634
635
636
637
638
639
640
641
642
643
644
645
646
647
648
649
650
651
652
653
654
655
656
657
658
659
660
661
662
663
664
665
666
667
668
669
670
671
672
673
674
675
676
677
678
679
680
681
682
683
684
685
686
687
688
689
690
691
692
693
694
695
696
697
698
699
700
701
702
703
704
705
706
707
708
709
710
711
712
713
714
715
716
717
718
719
720
721
722
723
724
725
726
727
728
729
730
731
732
733
734
735
736
737
738
739
740
741
742
743
744
745
746
747
748
749
750
751
752
753
754
755
756
757
758
759
760
761
762
763
764
765
766
767
768
769
770
771
772
773
774
775
776
777
778
779
780
781
782
783
784
785
786
787
788
789
790
791
792
793
794
795
796
797
798
799
800
801
802
803
804
805
806
807
808
809
810
811
812
813
814
815
816
817
818
819
820
821
822
823
824
825
826
827
828
829
830
831
832
833
834
835
836
837
838
839
840
841
842
843
844
845
846
847
848
849
850
851
852
853
854
855
856
857
858
859
860
861
862
863
864
865
866
867
868
869
870
871
872
873
874
875
876
877
878
879
880
881
882
883
884
885
886
887
888
889
890
891
892
893
894
895
896
897
898
899
900
901
902
903
904
905
906
907
908
909
910
911
912
913
914
915
916
917
918
919
920
921
922
923
924
925
926
927
928
929
930
931
932
933
934
935
936
937
938
939
940
941
942
943
944
945
946
947
948
949
950
951
952
953
954
955
956
957
958
959
960
961
962
963
964
965
966
967
968
969
970
971
972
973
974
975
976
977
978
979
980
981
982
983
984
985
986
987
988
989
990
991
992
993
994
995
996
997
998
999
1000
1001
1002
1003
1004
1005
1006
1007
1008
1009
1010
1011
1012
1013
1014
1015
1016
1017
1018
1019
1020
1021
1022
1023
1024
1025
1026
1027
1028
1029
1030
1031
1032
1033
1034
1035
1036
1037
1038
1039
1040
1041
1042
1043
1044
1045
1046
1047
1048
1049
1050
1051
1052
1053
1054
1055
1056
1057
1058
1059
1060
1061
1062
1063
1064
1065
1066
1067
1068
1069
1070
1071
1072
1073
1074
1075
1076
1077
1078
1079
1080
1081
1082
1083
1084
1085
1086
1087
1088
1089
1090
1091
1092
1093
1094
1095
1096
1097
1098
1099
1100
1101
1102
1103
1104
1105
1106
1107
1108
1109
1110
1111
1112
1113
1114
1115
1116
1117
1118
1119
1120
1121
1122
1123
1124
1125
1126
1127
1128
1129
1130
1131
1132
1133
1134
1135
1136
1137
1138
1139
1140
1141
1142
1143
1144
1145
1146
1147
1148
1149
1150
1151
1152
1153
1154
1155
1156
1157
1158
1159
1160
1161
1162
1163
1164
1165
1166
1167
1168
1169
1170
1171
1172
1173
1174
1175
1176
1177
1178
1179
1180
1181
1182
1183
1184
1185
1186
1187
1188
1189
1190
1191
1192
1193
1194
1195
1196
1197
1198
1199
1200
1201
1202
1203
1204
1205
1206
1207
1208
1209
1210
1211
1212
1213
1214
1215
1216
1217
1218
1219
1220
1221
1222
1223
1224
1225
1226
1227
1228
1229
1230
1231
1232
1233
1234
1235
1236
1237
1238
1239
1240
1241
1242
1243
1244
1245
1246
1247
1248
1249
1250
1251
1252
1253
1254
1255
1256
1257
1258
1259
1260
1261
1262
1263
1264
1265
1266
1267
1268
1269
1270
1271
1272
1273
1274
1275
1276
1277
1278
1279
1280
1281
1282
1283
1284
1285
1286
1287
1288
1289
1290
1291
1292
1293
1294
1295
1296
1297
1298
1299
1300
1301
1302
1303
1304
1305
1306
1307
1308
1309
1310
1311
1312
1313
1314
1315
1316
1317
1318
1319
1320
1321
1322
1323
1324
1325
1326
1327
1328
1329
1330
1331
200.0000000000001 200.0000000000001 200
200.0000000000001 200.0000000000001 400
200.0000000000001 200.0000000000001 600
200.0000000000001 200.0000000000001 800
200.0000000000001 399.9999999999999 200
200.0000000000001 399.9999999999999 400
200.0000000000001 399.9999999999999 600
200.0000000000001 399.9999999999999 800
200 600 200
200 600 400
200 600 600
200 600 800
200 799.9999999999999 200
200 799.9999999999999 400
200 799.9999999999999 600
200 799.9999999999999 800
399.9999999999999 200.0000000000001 200
399.9999999999999 200.0000000000001 400
399.9999999999999 200.0000000000001 600
399.9999999999999 200.0000000000001 800
399.9999999999999 399.9999999999999 200
399.9999999999999 399.9999999999999 400
399.9999999999999 399.9999999999999 600
399.9999999999999 399.9999999999999 800
399.9999999999999 600.0000000000001 200
399.9999999999999 600.0000000000001 400
399.9999999999999 600.0000000000001 600
399.9999999999999 600.0000000000001 800
399.9999999999999 800 200
399.9999999999999 800 400
399.9999999999999 800 600
399.9999999999999 800 800
600.0000000000001 200 200
600.0000000000001 200 400
600.0000000000001 200 600
600.0000000000001 200 800
600.0000000000001 399.9999999999999 200
600.0000000000001 399.9999999999999 400
600.0000000000001 399.9999999999999 600
600.0000000000001 399.9999999999999 800
600 600 200
600 600 400
600 600 600
600 600 800
600 800 200
600 800 400
600 800 600
600 800 800
800 200.0000000000001 200
800 200.0000000000001 400
800 200.0000000000001 600
800 200.0000000000001 800
800 400 200
800 400 400
800 400 600
800 400 800
800 600.0000000000001 200
800 600.0000000000001 400
800 600.0000000000001 600
800 600.0000000000001 800
800 800 200
800 800 400
800 800 600
800 800 800
200.0000000000001 200.0000000000001 100
200 100 200
100 200 200
200 100 100
100 200.0000000000001 100
100 100 200
99.99999999999999 100 100
200.0000000000001 200.0000000000001 300
200 100 400
100 200 400
200 100 300
100 200.0000000000001 300
100 100 400
100 100 300
200.0000000000001 200.0000000000001 500
200 100 600
100 200 600
200 100 500
100 200.0000000000001 500
100 100 600
100 100 500
200.0000000000001 200.0000000000001 700
200 100 800
100 200 800
200 100 700
100 200.0000000000001 700
100 100 800
100 100 700
200.0000000000001 200.0000000000001 900
200 100 900
100 200.0000000000001 900
99.99999999999997 100 900
200.0000000000001 399.9999999999999 100
200.0000000000001 300 200
100 399.9999999999999 200
200.0000000000001 299.9999999999999 100
100 399.9999999999999 100
100 299.9999999999999 200
100 300 100
200.0000000000001 399.9999999999999 300
200.0000000000001 300 400
100 399.9999999999999 400
200.0000000000001 300 300
100 399.9999999999999 300
100 299.9999999999999 400
100 300 300
200.0000000000001 399.9999999999999 500
200.0000000000001 300 600
100 399.9999999999999 600
200.0000000000001 300 500
100 399.9999999999999 500
100 299.9999999999999 600
100 300 500
200.0000000000001 399.9999999999999 700
200.0000000000001 300 800
100 399.9999999999999 800
200.0000000000001 300 700
100 399.9999999999999 700
100 299.9999999999999 800
100 300 700
200.0000000000001 399.9999999999999 900
200.0000000000001 300 900
100 399.9999999999999 900
99.99999999999997 300.0000000000001 900
200 600 100
200 499.9999999999999 200
100 600 200
200.0000000000001 499.9999999999999 100
100 600 100
100 499.9999999999999 200
100 499.9999999999999 100
200 600 300
200 499.9999999999999 400
100 600 400
200.0000000000001 499.9999999999999 300
100 600 300
100 499.9999999999999 400
100 499.9999999999999 300
200 600 500
200 499.9999999999999 600
100 600 600
200.0000000000001 499.9999999999999 500
100 600 500
100 499.9999999999999 600
100 499.9999999999999 500
200 600 700
200 499.9999999999999 800
100 600 800
200.0000000000001 499.9999999999999 700
100 600 700
100 499.9999999999999 800
100 499.9999999999999 700
200 600 900
200.0000000000001 499.9999999999999 900
100 600 900
100 499.9999999999999 900
200 799.9999999999999 100
200 700 200
100 800 200
200 700 100
100 800 100
100 700 200
100 700 100
200 799.9999999999999 300
200 700 400
100 800 400
200 700 300
100 800 300
100 700 400
100 700 300
200 799.9999999999999 500
200 700 600
100 800 600
200 700 500
100 800 500
100 700 600
100 700 500
200 799.9999999999999 700
200 700 800
100 800 800
200 700 700
100 800 700
100 700 800
100 700 700
200 799.9999999999999 900
200 700 900
100 800 900
100 700 900
200 900 200
200 900 100
100 900 200
100 900 100
200 900 400
200 900 300
100 900 400
100 900 300
200 900 600
200 900 500
100 900 600
100 900 500
200 900 800
200 900 700
100 900 800
100 900 700
200 900 900
100 900 900
399.9999999999999 200.0000000000001 100
400 100 200
300 200.0000000000001 200
400 100 100
300 200.0000000000001 100
300 100 200
300 100 100
399.9999999999999 200.0000000000001 300
400 100 400
300 200.0000000000001 400
400 100 300
300 200.0000000000001 300
300 100 400
300 100 300
399.9999999999999 200.0000000000001 500
400 100 600
300 200.0000000000001 600
400 100 500
300 200.0000000000001 500
300 100 600
300 100 500
399.9999999999999 200.0000000000001 700
400 100 800
300 200.0000000000001 800
400 100 700
300 200.0000000000001 700
300 100 800
300 100 700
399.9999999999999 200.0000000000001 900
400 100 900
300 200.0000000000001 900
300 99.99999999999997 900
399.9999999999999 399.9999999999999 100
399.9999999999999 300 200
300 399.9999999999999 200
399.9999999999999 300 100
300 399.9999999999999 100
300 300 200
300 300 100
399.9999999999999 399.9999999999999 300
399.9999999999999 300 400
300 399.9999999999999 400
399.9999999999999 300 300
300 399.9999999999999 300
300 300 400
300 300.0000000000001 300
399.9999999999999 399.9999999999999 500
399.9999999999999 300 600
300 399.9999999999999 600
399.9999999999999 300 500
300 399.9999999999999 500
300 300 600
300 300.0000000000001 500
399.9999999999999 399.9999999999999 700
399.9999999999999 300 800
300 399.9999999999999 800
399.9999999999999 300 700
300 399.9999999999999 700
300 300 800
300 300.0000000000001 700
399.9999999999999 399.9999999999999 900
399.9999999999999 300 900
300 399.9999999999999 900
300 300.0000000000001 900
399.9999999999999 600.0000000000001 100
399.9999999999999 500 200
300 600 200
399.9999999999999 500 100
299.9999999999999 600 100
300 499.9999999999999 200
300.0000000000001 499.9999999999999 100
399.9999999999999 600.0000000000001 300
399.9999999999999 500 400
300 600 400
399.9999999999999 500 300
300 600 300
300 499.9999999999999 400
300 499.9999999999999 300
399.9999999999999 600.0000000000001 500
399.9999999999999 500 600
300 600 600
399.9999999999999 500 500
300 600 500
300 499.9999999999999 600
300 499.9999999999999 500
399.9999999999999 600.0000000000001 700
399.9999999999999 500 800
300 600 800
399.9999999999999 500 700
300 600 700
300 499.9999999999999 800
300 499.9999999999999 700
399.9999999999999 600.0000000000001 900
399.9999999999999 500 900
300 600 900
300 499.9999999999999 900
399.9999999999999 800 100
399.9999999999999 700 200
299.9999999999999 800 200
399.9999999999999 700 100
299.9999999999999 799.9999999999999 100
299.9999999999999 700 200
300 700 100
399.9999999999999 800 300
399.9999999999999 700 400
299.9999999999999 800 400
399.9999999999999 700 300
299.9999999999999 800 300
299.9999999999999 700 400
299.9999999999999 700 300
399.9999999999999 800 500
399.9999999999999 700 600
299.9999999999999 800 600
399.9999999999999 700 500
299.9999999999999 800 500
299.9999999999999 700 600
299.9999999999999 700 500
399.9999999999999 800 700
399.9999999999999 700 800
299.9999999999999 800 800
399.9999999999999 700 700
299.9999999999999 800 700
299.9999999999999 700 800
299.9999999999999 700 700
399.9999999999999 800 900
399.9999999999999 700 900
299.9999999999999 800 900
300 700 900
399.9999999999999 900 200
399.9999999999999 900 100
300 900 200
299.9999999999999 900 100
399.9999999999999 900 400
399.9999999999999 900 300
300 900 400
299.9999999999999 900 300
399.9999999999999 900 600
399.9999999999999 900 500
300 900 600
299.9999999999999 900 500
399.9999999999999 900 800
399.9999999999999 900 700
300 900 800
299.9999999999999 900 700
399.9999999999999 900 900
299.9999999999999 900 900
600.0000000000001 200 100
600.0000000000001 100 200
500 200 200
600.0000000000001 100 100
500.0000000000001 200 100
500 100 200
500 99.99999999999997 100
600.0000000000001 200 300
600.0000000000001 100 400
500 200 400
600.0000000000001 100 300
500 200 300
500 100 400
499.9999999999999 100 300
600.0000000000001 200 500
600.0000000000001 100 600
500 200 600
600.0000000000001 100 500
500 200 500
500 100 600
499.9999999999999 100 500
600.0000000000001 200 700
600.0000000000001 100 800
500 200 800
600.0000000000001 100 700
500 200 700
500 100 800
499.9999999999999 100 700
600.0000000000001 200 900
600.0000000000001 100 900
500 200 900
500 99.99999999999997 900
600.0000000000001 399.9999999999999 100
600.0000000000001 299.9999999999999 200
500 399.9999999999999 200
600.0000000000001 299.9999999999999 100
500 399.9999999999999 100
500 299.9999999999999 200
499.9999999999999 300 100
600.0000000000001 399.9999999999999 300
600.0000000000001 299.9999999999999 400
500 399.9999999999999 400
600.0000000000001 299.9999999999999 300
500 399.9999999999999 300
500 299.9999999999999 400
499.9999999999999 299.9999999999999 300
600.0000000000001 399.9999999999999 500
600.0000000000001 299.9999999999999 600
500 399.9999999999999 600
600.0000000000001 299.9999999999999 500
500 399.9999999999999 500
500 299.9999999999999 600
499.9999999999999 299.9999999999999 500
600.0000000000001 399.9999999999999 700
600.0000000000001 299.9999999999999 800
500 399.9999999999999 800
600.0000000000001 299.9999999999999 700
500 399.9999999999999 700
500 299.9999999999999 800
499.9999999999999 299.9999999999999 700
600.0000000000001 399.9999999999999 900
600.0000000000001 299.9999999999999 900
500 399.9999999999999 900
499.9999999999999 299.9999999999999 900
600 600 100
600 499.9999999999999 200
500 600 200
600.0000000000001 499.9999999999999 100
500 600 100
500 499.9999999999999 200
500.0000000000001 499.9999999999999 100
600 600 300
600 499.9999999999999 400
500 600 400
600 499.9999999999999 300
500 600 300
500 499.9999999999999 400
500 499.9999999999999 300
600 600 500
600 499.9999999999999 600
500 600 600
600 499.9999999999999 500
500 600 500
500 499.9999999999999 600
500 499.9999999999999 500
600 600 700
600 499.9999999999999 800
500 600 800
600 499.9999999999999 700
500 600 700
500 499.9999999999999 800
500 499.9999999999999 700
600 600 900
600 499.9999999999999 900
500 600 900
500 499.9999999999999 900
600 800 100
600 700 200
499.9999999999999 800 200
600 700 100
499.9999999999999 800 100
499.9999999999999 700 200
499.9999999999999 700 100
600 800 300
600 700 400
499.9999999999999 800 400
600 700 300
499.9999999999999 800 300
499.9999999999999 700 400
499.9999999999999 700 300
600 800 500
600 700 600
499.9999999999999 800 600
600 700 500
499.9999999999999 800 500
499.9999999999999 700 600
499.9999999999999 700 500
600 800 700
600 700 800
499.9999999999999 800 800
600 700 700
499.9999999999999 800 700
499.9999999999999 700 800
499.9999999999999 700 700
600 800 900
600 700 900
499.9999999999999 800 900
499.9999999999999 700 900
600 900 200
600 900 100
499.9999999999999 900 200
500 900 100
600 900 400
600 900 300
499.9999999999999 900 400
499.9999999999999 900 300
600 900 600
600 900 500
499.9999999999999 900 600
499.9999999999999 900 500
600 900 800
600 900 700
499.9999999999999 900 800
499.9999999999999 900 700
600 900 900
499.9999999999999 900 900
800 200.0000000000001 100
800 100 200
700 200 200
800 100 100
700 200.0000000000001 100
700 100 200
700 100 100
800 200.0000000000001 300
800 100 400
700 200 400
800 100 300
700 200.0000000000001 300
700 100 400
700 100 300
800 200.0000000000001 500
800 100 600
700 200 600
800 100 500
700 200.0000000000001 500
700 100 600
700 100 500
800 200.0000000000001 700
800 100 800
700 200 800
800 100 700
700 200.0000000000001 700
700 100 800
700 100 700
800 200.0000000000001 900
800 100 900
700 200.0000000000001 900
700 100 900
800 400 100
800 300 200
700 399.9999999999999 200
800 300 100
700 399.9999999999999 100
700 299.9999999999999 200
700 299.9999999999999 100
800 400 300
800 300 400
700 399.9999999999999 400
800 300 300
700 399.9999999999999 300
700 299.9999999999999 400
700 299.9999999999999 300
800 400 500
800 300 600
700 399.9999999999999 600
800 300 500
700 399.9999999999999 500
700 299.9999999999999 600
700 299.9999999999999 500
800 400 700
800 300 800
700 399.9999999999999 800
800 300 700
700 399.9999999999999 700
700 299.9999999999999 800
700 299.9999999999999 700
800 400 900
800 300 900
700 399.9999999999999 900
700 299.9999999999999 900
800 600.0000000000001 100
800 500.0000000000001 200
700 600 200
800 500.0000000000001 100
700 600.0000000000001 100
700 500 200
700 500.0000000000001 100
800 600.0000000000001 300
800 500.0000000000001 400
700 600 400
800 500.0000000000001 300
700 600 300
700 500 400
700 500 300
800 600.0000000000001 500
800 500.0000000000001 600
700 600 600
800 500.0000000000001 500
700 600 500
700 500 600
700 500 500
800 600.0000000000001 700
800 500.0000000000001 800
700 600 800
800 500.0000000000001 700
700 600 700
700 500 800
700 500 700
800 600.0000000000001 900
800 500.0000000000001 900
700 600 900
700 500 900
800 800 100
800 700 200
700 800 200
800 700 100
700 800 100
700 700 200
700 700 100
800 800 300
800 700 400
700 800 400
800 700 300
700 800 300
700 700 400
700 700 300
800 800 500
800 700 600
700 800 600
800 700 500
700 800 500
700 700 600
700 700 500
800 800 700
800 700 800
700 800 800
800 700 700
700 800 700
700 700 800
700 700 700
800 800 900
800 700 900
700 800 900
700 700 900
800 900 200
800 900 100
700 900 200
700 900 100
800 900 400
800 900 300
700 900 400
700 900 300
800 900 600
800 900 500
700 900 600
700 900 500
800 900 800
800 900 700
700 900 800
700 900 700
800 900 900
700 900 900
900 200 200
900 200 100
900 100 200
900 99.99999999999997 100
900 200 400
900 200 300
900 100 400
900 100 300
900 200 600
900 200 500
900 100 600
900 100 500
900 200 800
900 200 700
900 100 800
900 100 700
900 200 900
900 99.99999999999997 900
900 400 200
900 400 100
900 300 200
900 300 100
900 400 400
900 400 300
900 300 400
900 300 300
900 400 600
900 400 500
900 300 600
900 300 500
900 400 800
900 400 700
900 300 800
900 300 700
900 400 900
900 300 900
900 600.0000000000001 200
900 600.0000000000001 100
900 500.0000000000001 200
900 500 100
900 600.0000000000001 400
900 600.0000000000001 300
900 500.0000000000001 400
900 500.0000000000001 300
900 600.0000000000001 600
900 600.0000000000001 500
900 500.0000000000001 600
900 500.0000000000001 500
900 600.0000000000001 800
900 600.0000000000001 700
900 500.0000000000001 800
900 500.0000000000001 700
900 600.0000000000001 900
900 500.0000000000001 900
900 800 200
900 800 100
900 700 200
900 700 100
900 800 400
900 800 300
900 700 400
900 700 300
900 800 600
900 800 500
900 700 600
900 700 500
900 800 800
900 800 700
900 700 800
900 700 700
900 800 900
900 700 900
900 900 200
900 900 100
900 900 400
900 900 300
900 900 600
900 900 500
900 900 800
900 900 700
900 900 900
$EndNodes
$Elements
27 1728 1 1728
0 1 15 1
1 1 
0 2 15 1
2 2 
0 3 15 1
3 3 
0 4 15 1
4 4 
0 5 15 1
5 5 
0 6 15 1
6 6 
0 7 15 1
7 7 
0 8 15 1
8 8 
1 1 1 10
9 1 9 
10 9 10 
11 10 11 
12 11 12 
13 12 13 
14 13 14 
15 14 15 
16 15 16 
17 16 17 
18 17 2 
1 2 1 10
19 2 18 
20 18 19 
21 19 20 
22 20 21 
23 21 22 
24 22 23 
25 23 24 
26 24 25 
27 25 26 
28 26 3 
1 3 1 10
29 3 27 
30 27 28 
31 28 29 
32 29 30 
33 30 31 
34 31 32 
35 32 33 
36 33 34 
37 34 35 
38 35 4 
1 4 1 10
39 4 36 
40 36 37 
41 37 38 
42 38 39 
43 39 40 
44 40 41 
45 41 42 
46 42 43 
47 43 44 
48 44 1 
1 5 1 10
49 1 45 
50 45 46 
51 46 47 
52 47 48 
53 48 49 
54 49 50 
55 50 51 
56 51 52 
57 52 53 
58 53 5 
1 6 1 10
59 2 54 
60 54 55 
61 55 56 
62 56 57 
63 57 58 
64 58 59 
65 59 60 
66 60 61 
67 61 62 
68 62 6 
1 7 1 10
69 5 63 
70 63 64 
71 64 65 
72 65 66 
73 66 67 
74 67 68 
75 68 69 
76 69 70 
77 70 71 
78 71 6 
1 8 1 10
79 3 72 
80 72 73 
81 73 74 
82 74 75 
83 75 76 
84 76 77 
85 77 78 
86 78 79 
87 79 80 
88 80 7 
1 9 1 10
89 6 81 
90 81 82 
91 82 83 
92 83 84 
93 84 85 
94 85 86 
95 86 87 
96 87 88 
97 88 89 
98 89 7 
1 10 1 10
99 4 90 
100 90 91 
101 91 92 
102 92 93 
103 93 94 
104 94 95 
105 95 96 
106 96 97 
107 97 98 
108 98 8 
1 11 1 10
109 7 99 
110 99 100 
111 100 101 
112 101 102 
113 102 103 
114 103 104 
115 104 105 
116 105 106 
117 106 107 
118 107 8 
1 12 1 10
119 8 108 
120 108 109 
121 109 110 
122 110 111 
123 111 112 
124 112 113 
125 113 114 
126 114 115 
127 115 116 
128 116 5 
2 1 3 100
129 1 9 135 44 
130 9 10 133 135 
131 135 133 117 134 
132 44 135 134 43 
133 43 134 138 42 
134 134 117 136 138 
135 138 136 118 137 
136 42 138 137 41 
137 41 137 141 40 
138 137 118 139 141 
139 141 139 119 140 
140 40 141 140 39 
141 39 140 144 38 
142 140 119 142 144 
143 144 142 120 143 
144 38 144 143 37 
145 37 143 146 36 
146 143 120 145 146 
147 146 145 34 35 
148 36 146 35 4 
149 10 11 149 133 
150 11 12 147 149 
151 149 147 121 148 
152 133 149 148 117 
153 117 148 152 136 
154 148 121 150 152 
155 152 150 122 151 
156 136 152 151 118 
157 118 151 155 139 
158 151 122 153 155 
159 155 153 123 154 
160 139 155 154 119 
161 119 154 158 142 
162 154 123 156 158 
163 158 156 124 157 
164 142 158 157 120 
165 120 157 160 145 
166 157 124 159 160 
167 160 159 32 33 
168 145 160 33 34 
169 12 13 163 147 
170 13 14 161 163 
171 163 161 125 162 
172 147 163 162 121 
173 121 162 166 150 
174 162 125 164 166 
175 166 164 126 165 
176 150 166 165 122 
177 122 165 169 153 
178 165 126 167 169 
179 169 167 127 168 
180 153 169 168 123 
181 123 168 172 156 
182 168 127 170 172 
183 172 170 128 171 
184 156 172 171 124 
185 124 171 174 159 
186 171 128 173 174 
187 174 173 30 31 
188 159 174 31 32 
189 14 15 177 161 
190 15 16 175 177 
191 177 175 129 176 
192 161 177 176 125 
193 125 176 180 164 
194 176 129 178 180 
195 180 178 130 179 
196 164 180 179 126 
197 126 179 183 167 
198 179 130 181 183 
199 183 181 131 182 
200 167 183 182 127 
201 127 182 186 170 
202 182 131 184 186 
203 186 184 132 185 
204 170 186 185 128 
205 128 185 188 173 
206 185 132 187 188 
207 188 187 28 29 
208 173 188 29 30 
209 16 17 190 175 
210 17 2 18 190 
211 190 18 19 189 
212 175 190 189 129 
213 129 189 192 178 
214 189 19 20 192 
215 192 20 21 191 
216 178 192 191 130 
217 130 191 194 181 
218 191 21 22 194 
219 194 22 23 193 
220 181 194 193 131 
221 131 193 196 184 
222 193 23 24 196 
223 196 24 25 195 
224 184 196 195 132 
225 132 195 197 187 
226 195 25 26 197 
227 197 26 3 27 
228 187 197 27 28 
2 2 3 100
229 1 9 216 45 
230 9 10 214 216 
231 216 214 198 215 
232 45 216 215 46 
233 46 215 219 47 
234 215 198 217 219 
235 219 217 199 218 
236 47 219 218 48 
237 48 218 222 49 
238 218 199 220 222 
239 222 220 200 221 
240 49 222 221 50 
241 50 221 225 51 
242 221 200 223 225 
243 225 223 201 224 
244 51 225 224 52 
245 52 224 227 53 
246 224 201 226 227 
247 227 226 64 63 
248 53 227 63 5 
249 10 11 230 214 
250 11 12 228 230 
251 230 228 202 229 
252 214 230 229 198 
253 198 229 233 217 
254 229 202 231 233 
255 233 231 203 232 
256 217 233 232 199 
257 199 232 236 220 
258 232 203 234 236 
259 236 234 204 235 
260 220 236 235 200 
261 200 235 239 223 
262 235 204 237 239 
263 239 237 205 238 
264 223 239 238 201 
265 201 238 241 226 
266 238 205 240 241 
267 241 240 66 65 
268 226 241 65 64 
269 12 13 244 228 
270 13 14 242 244 
271 244 242 206 243 
272 228 244 243 202 
273 202 243 247 231 
274 243 206 245 247 
275 247 245 207 246 
276 231 247 246 203 
277 203 246 250 234 
278 246 207 248 250 
279 250 248 208 249 
280 234 250 249 204 
281 204 249 253 237 
282 249 208 251 253 
283 253 251 209 252 
284 237 253 252 205 
285 205 252 255 240 
286 252 209 254 255 
287 255 254 68 67 
288 240 255 67 66 
289 14 15 258 242 
290 15 16 256 258 
291 258 256 210 257 
292 242 258 257 206 
293 206 257 261 245 
294 257 210 259 261 
295 261 259 211 260 
296 245 261 260 207 
297 207 260 264 248 
298 260 211 262 264 
299 264 262 212 263 
300 248 264 263 208 
301 208 263 267 251 
302 263 212 265 267 
303 267 265 213 266 
304 251 267 266 209 
305 209 266 269 254 
306 266 213 268 269 
307 269 268 70 69 
308 254 269 69 68 
309 16 17 271 256 
310 17 2 54 271 
311 271 54 55 270 
312 256 271 270 210 
313 210 270 273 259 
314 270 55 56 273 
315 273 56 57 272 
316 259 273 272 211 
317 211 272 275 262 
318 272 57 58 275 
319 275 58 59 274 
320 262 275 274 212 
321 212 274 277 265 
322 274 59 60 277 
323 277 60 61 276 
324 265 277 276 213 
325 213 276 278 268 
326 276 61 62 278 
327 278 62 6 71 
328 268 278 71 70 
2 3 3 100
329 2 18 297 54 
330 18 19 295 297 
331 297 295 279 296 
332 54 297 296 55 
333 55 296 300 56 
334 296 279 298 300 
335 300 298 280 299 
336 56 300 299 57 
337 57 299 303 58 
338 299 280 301 303 
339 303 301 281 302 
340 58 303 302 59 
341 59 302 306 60 
342 302 281 304 306 
343 306 304 282 305 
344 60 306 305 61 
345 61 305 308 62 
346 305 282 307 308 
347 308 307 82 81 
348 62 308 81 6 
349 19 20 311 295 
350 20 21 309 311 
351 311 309 283 310 
352 295 311 310 279 
353 279 310 314 298 
354 310 283 312 314 
355 314 312 284 313 
356 298 314 313 280 
357 280 313 317 301 
358 313 284 315 317 
359 317 315 285 316 
360 301 317 316 281 
361 281 316 320 304 
362 316 285 318 320 
363 320 318 286 319 
364 304 320 319 282 
365 282 319 322 307 
366 319 286 321 322 
367 322 321 84 83 
368 307 322 83 82 
369 21 22 325 309 
370 22 23 323 325 
371 325 323 287 324 
372 309 325 324 283 
373 283 324 328 312 
374 324 287 326 328 
375 328 326 288 327 
376 312 328 327 284 
377 284 327 331 315 
378 327 288 329 331 
379 331 329 289 330 
380 315 331 330 285 
381 285 330 334 318 
382 330 289 332 334 
383 334 332 290 333 
384 318 334 333 286 
385 286 333 336 321 
386 333 290 335 336 
387 336 335 86 85 
388 321 336 85 84 
389 23 24 339 323 
390 24 25 337 339 
391 339 337 291 338 
392 323 339 338 287 
393 287 338 342 326 
394 338 291 340 342 
395 342 340 292 341 
396 326 342 341 288 
397 288 341 345 329 
398 341 292 343 345 
399 345 343 293 344 
400 329 345 344 289 
401 289 344 348 332 
402 344 293 346 348 
403 348 346 294 347 
404 332 348 347 290 
405 290 347 350 335 
406 347 294 349 350 
407 350 349 88 87 
408 335 350 87 86 
409 25 26 352 337 
410 26 3 72 352 
411 352 72 73 351 
412 337 352 351 291 
413 291 351 354 340 
414 351 73 74 354 
415 354 74 75 353 
416 340 354 353 292 
417 292 353 356 343 
418 353 75 76 356 
419 356 76 77 355 
420 343 356 355 293 
421 293 355 358 346 
422 355 77 78 358 
423 358 78 79 357 
424 346 358 357 294 
425 294 357 359 349 
426 357 79 80 359 
427 359 80 7 89 
428 349 359 89 88 
2 4 3 100
429 3 27 378 72 
430 27 28 376 378 
431 378 376 360 377 
432 72 378 377 73 
433 73 377 381 74 
434 377 360 379 381 
435 381 379 361 380 
436 74 381 380 75 
437 75 380 384 76 
438 380 361 382 384 
439 384 382 362 383 
440 76 384 383 77 
441 77 383 387 78 
442 383 362 385 387 
443 387 385 363 386 
444 78 387 386 79 
445 79 386 389 80 
446 386 363 388 389 
447 389 388 100 99 
448 80 389 99 7 
449 28 29 392 376 
450 29 30 390 392 
451 392 390 364 391 
452 376 392 391 360 
453 360 391 395 379 
454 391 364 393 395 
455 395 393 365 394 
456 379 395 394 361 
457 361 394 398 382 
458 394 365 396 398 
459 398 396 366 397 
460 382 398 397 362 
461 362 397 401 385 
462 397 366 399 401 
463 401 399 367 400 
464 385 401 400 363 
465 363 400 403 388 
466 400 367 402 403 
467 403 402 102 101 
468 388 403 101 100 
469 30 31 406 390 
470 31 32 404 406 
471 406 404 368 405 
472 390 406 405 364 
473 364 405 409 393 
474 405 368 407 409 
475 409 407 369 408 
476 393 409 408 365 
477 365 408 412 396 
478 408 369 410 412 
479 412 410 370 411 
480 396 412 411 366 
481 366 411 415 399 
482 411 370 413 415 
483 415 413 371 414 
484 399 415 414 367 
485 367 414 417 402 
486 414 371 416 417 
487 417 416 104 103 
488 402 417 103 102 
489 32 33 420 404 
490 33 34 418 420 
491 420 418 372 419 
492 404 420 419 368 
493 368 419 423 407 
494 419 372 421 423 
495 423 421 373 422 
496 407 423 422 369 
497 369 422 426 410 
498 422 373 424 426 
499 426 424 374 425 
500 410 426 425 370 
501 370 425 429 413 
502 425 374 427 429 
503 429 427 375 428 
504 413 429 428 371 
505 371 428 431 416 
506 428 375 430 431 
507 431 430 106 105 
508 416 431 105 104 
509 34 35 433 418 
510 35 4 90 433 
511 433 90 91 432 
512 418 433 432 372 
513 372 432 435 421 
514 432 91 92 435 
515 435 92 93 434 
516 421 435 434 373 
517 373 434 437 424 
518 434 93 94 437 
519 437 94 95 436 
520 424 437 436 374 
521 374 436 439 427 
522 436 95 96 439 
523 439 96 97 438 
524 427 439 438 375 
525 375 438 440 430 
526 438 97 98 440 
527 440 98 8 107 
528 430 440 107 106 
2 5 3 100
529 4 36 459 90 
530 36 37 457 459 
531 459 457 441 458 
532 90 459 458 91 
533 91 458 462 92 
534 458 441 460 462 
535 462 460 442 461 
536 92 462 461 93 
537 93 461 465 94 
538 461 442 463 465 
539 465 463 443 464 
540 94 465 464 95 
541 95 464 468 96 
542 464 443 466 468 
543 468 466 444 467 
544 96 468 467 97 
545 97 467 470 98 
546 467 444 469 470 
547 470 469 109 108 
548 98 470 108 8 
549 37 38 473 457 
550 38 39 471 473 
551 473 471 445 472 
552 457 473 472 441 
553 441 472 476 460 
554 472 445 474 476 
555 476 474 446 475 
556 460 476 475 442 
557 442 475 479 463 
558 475 446 477 479 
559 479 477 447 478 
560 463 479 478 443 
561 443 478 482 466 
562 478 447 480 482 
563 482 480 448 481 
564 466 482 481 444 
565 444 481 484 469 
566 481 448 483 484 
567 484 483 111 110 
568 469 484 110 109 
569 39 40 487 471 
570 40 41 485 487 
571 487 485 449 486 
572 471 487 486 445 
573 445 486 490 474 
574 486 449 488 490 
575 490 488 450 489 
576 474 490 489 446 
577 446 489 493 477 
578 489 450 491 493 
579 493 491 451 492 
580 477 493 492 447 
581 447 492 496 480 
582 492 451 494 496 
583 496 494 452 495 
584 480 496 495 448 
585 448 495 498 483 
586 495 452 497 498 
587 498 497 113 112 
588 483 498 112 111 
589 41 42 501 485 
590 42 43 499 501 
591 501 499 453 500 
592 485 501 500 449 
593 449 500 504 488 
594 500 453 502 504 
595 504 502 454 503 
596 488 504 503 450 
597 450 503 507 491 
598 503 454 505 507 
599 507 505 455 506 
600 491 507 506 451 
601 451 506 510 494 
602 506 455 508 510 
603 510 508 456 509 
604 494 510 509 452 
605 452 509 512 497 
606 509 456 511 512 
607 512 511 115 114 
608 497 512 114 113 
609 43 44 514 499 
610 44 1 45 514 
611 514 45 46 513 
612 499 514 513 453 
613 453 513 516 502 
614 513 46 47 516 
615 516 47 48 515 
616 502 516 515 454 
617 454 515 518 505 
618 515 48 49 518 
619 518 49 50 517 
620 505 518 517 455 
621 455 517 520 508 
622 517 50 51 520 
623 520 51 52 519 
624 508 520 519 456 
625 456 519 521 511 
626 519 52 53 521 
627 521 53 5 116 
628 511 521 116 115 
2 6 3 100
629 5 63 540 116 
630 63 64 538 540 
631 540 538 522 539 
632 116 540 539 115 
633 115 539 543 114 
634 539 522 541 543 
635 543 541 523 542 
636 114 543 542 113 
637 113 542 546 112 
638 542 523 544 546 
639 546 544 524 545 
640 112 546 545 111 
641 111 545 549 110 
642 545 524 547 549 
643 549 547 525 548 
644 110 549 548 109 
645 109 548 551 108 
646 548 525 550 551 
647 551 550 106 107 
648 108 551 107 8 
649 64 65 554 538 
650 65 66 552 554 
651 554 552 526 553 
652 538 554 553 522 
653 522 553 557 541 
654 553 526 555 557 
655 557 555 527 556 
656 541 557 556 523 
657 523 556 560 544 
658 556 527 558 560 
659 560 558 528 559 
660 544 560 559 524 
661 524 559 563 547 
662 559 528 561 563 
663 563 561 529 562 
664 547 563 562 525 
665 525 562 565 550 
666 562 529 564 565 
667 565 564 104 105 
668 550 565 105 106 
669 66 67 568 552 
670 67 68 566 568 
671 568 566 530 567 
672 552 568 567 526 
673 526 567 571 555 
674 567 530 569 571 
675 571 569 531 570 
676 555 571 570 527 
677 527 570 574 558 
678 570 531 572 574 
679 574 572 532 573 
680 558 574 573 528 
681 528 573 577 561 
682 573 532 575 577 
683 577 575 533 576 
684 561 577 576 529 
685 529 576 579 564 
686 576 533 578 579 
687 579 578 102 103 
688 564 579 103 104 
689 68 69 582 566 
690 69 70 580 582 
691 582 580 534 581 
692 566 582 581 530 
693 530 581 585 569 
694 581 534 583 585 
695 585 583 535 584 
696 569 585 584 531 
697 531 584 588 572 
698 584 535 586 588 
699 588 586 536 587 
700 572 588 587 532 
701 532 587 591 575 
702 587 536 589 591 
703 591 589 537 590 
704 575 591 590 533 
705 533 590 593 578 
706 590 537 592 593 
707 593 592 100 101 
708 578 593 101 102 
709 70 71 595 580 
710 71 6 81 595 
711 595 81 82 594 
712 580 595 594 534 
713 534 594 597 583 
714 594 82 83 597 
715 597 83 84 596 
716 583 597 596 535 
717 535 596 599 586 
718 596 84 85 599 
719 599 85 86 598 
720 586 599 598 536 
721 536 598 601 589 
722 598 86 87 601 
723 601 87 88 600 
724 589 601 600 537 
725 537 600 602 592 
726 600 88 89 602 
727 602 89 7 99 
728 592 602 99 100 
3 1 5 1000
729 1 9 135 44 45 216 673 514 
730 45 216 673 514 46 215 672 513 
731 9 10 133 135 216 214 670 673 
732 216 214 670 673 215 198 668 672 
733 44 135 134 43 514 673 671 499 
734 514 673 671 499 513 672 669 453 
735 135 133 117 134 673 670 667 671 
736 673 670 667 671 672 668 603 669 
737 46 215 672 513 47 219 680 516 
738 47 219 680 516 48 218 679 515 
739 215 198 668 672 219 217 677 680 
740 219 217 677 680 218 199 675 679 
741 513 672 669 453 516 680 678 502 
742 516 680 678 502 515 679 676 454 
743 672 668 603 669 680 677 674 678 
744 680 677 674 678 679 675 604 676 
745 48 218 679 515 49 222 687 518 
746 49 222 687 518 50 221 686 517 
747 218 199 675 679 222 220 684 687 
748 222 220 684 687 221 200 682 686 
749 515 679 676 454 518 687 685 505 
750 518 687 685 505 517 686 683 455 
751 679 675 604 676 687 684 681 685 
752 687 684 681 685 686 682 605 683 
753 50 221 686 517 51 225 694 520 
754 51 225 694 520 52 224 693 519 
755 221 200 682 686 225 223 691 694 
756 225 223 691 694 224 201 689 693 
757 517 686 683 455 520 694 692 508 
758 520 694 692 508 519 693 690 456 
759 686 682 605 683 694 691 688 692 
760 694 691 688 692 693 689 606 690 
761 52 224 693 519 53 227 698 521 
762 53 227 698 521 5 63 540 116 
763 224 201 689 693 227 226 696 698 
764 227 226 696 698 63 64 538 540 
765 519 693 690 456 521 698 697 511 
766 521 698 697 511 116 540 539 115 
767 693 689 606 690 698 696 695 697 
768 698 696 695 697 540 538 522 539 
769 43 134 138 42 499 671 705 501 
770 499 671 705 501 453 669 704 500 
771 134 117 136 138 671 667 702 705 
772 671 667 702 705 669 603 700 704 
773 42 138 137 41 501 705 703 485 
774 501 705 703 485 500 704 701 449 
775 138 136 118 137 705 702 699 703 
776 705 702 699 703 704 700 607 701 
777 453 669 704 500 502 678 712 504 
778 502 678 712 504 454 676 711 503 
779 669 603 700 704 678 674 709 712 
780 678 674 709 712 676 604 707 711 
781 500 704 701 449 504 712 710 488 
782 504 712 710 488 503 711 708 450 
783 704 700 607 701 712 709 706 710 
784 712 709 706 710 711 707 608 708 
785 454 676 711 503 505 685 719 507 
786 505 685 719 507 455 683 718 506 
787 676 604 707 711 685 681 716 719 
788 685 681 716 719 683 605 714 718 
789 503 711 708 450 507 719 717 491 
790 507 719 717 491 506 718 715 451 
791 711 707 608 708 719 716 713 717 
792 719 716 713 717 718 714 609 715 
793 455 683 718 506 508 692 726 510 
794 508 692 726 510 456 690 725 509 
795 683 605 714 718 692 688 723 726 
796 692 688 723 726 690 606 721 725 
797 506 718 715 451 510 726 724 494 
798 510 726 724 494 509 725 722 452 
799 718 714 609 715 726 723 720 724 
800 726 723 720 724 725 721 610 722 
801 456 690 725 509 511 697 730 512 
802 511 697 730 512 115 539 543 114 
803 690 606 721 725 697 695 728 730 
804 697 695 728 730 539 522 541 543 
805 509 725 722 452 512 730 729 497 
806 512 730 729 497 114 543 542 113 
807 725 721 610 722 730 728 727 729 
808 730 728 727 729 543 541 523 542 
809 41 137 141 40 485 703 737 487 
810 485 703 737 487 449 701 736 486 
811 137 118 139 141 703 699 734 737 
812 703 699 734 737 701 607 732 736 
813 40 141 140 39 487 737 735 471 
814 487 737 735 471 486 736 733 445 
815 141 139 119 140 737 734 731 735 
816 737 734 731 735 736 732 611 733 
817 449 701 736 486 488 710 744 490 
818 488 710 744 490 450 708 743 489 
819 701 607 732 736 710 706 741 744 
820 710 706 741 744 708 608 739 743 
821 486 736 733 445 490 744 742 474 
822 490 744 742 474 489 743 740 446 
823 736 732 611 733 744 741 738 742 
824 744 741 738 742 743 739 612 740 
825 450 708 743 489 491 717 751 493 
826 491 717 751 493 451 715 750 492 
827 708 608 739 743 717 713 748 751 
828 717 713 748 751 715 609 746 750 
829 489 743 740 446 493 751 749 477 
830 493 751 749 477 492 750 747 447 
831 743 739 612 740 751 748 745 749 
832 751 748 745 749 750 746 613 747 
833 451 715 750 492 494 724 758 496 
834 494 724 758 496 452 722 757 495 
835 715 609 746 750 724 720 755 758 
836 724 720 755 758 722 610 753 757 
837 492 750 747 447 496 758 756 480 
838 496 758 756 480 495 757 754 448 
839 750 746 613 747 758 755 752 756 
840 758 755 752 756 757 753 614 754 
841 452 722 757 495 497 729 762 498 
842 497 729 762 498 113 542 546 112 
843 722 610 753 757 729 727 760 762 
844 729 727 760 762 542 523 544 546 
845 495 757 754 448 498 762 761 483 
846 498 762 761 483 112 546 545 111 
847 757 753 614 754 762 760 759 761 
848 762 760 759 761 546 544 524 545 
849 39 140 144 38 471 735 769 473 
850 471 735 769 473 445 733 768 472 
851 140 119 142 144 735 731 766 769 
852 735 731 766 769 733 611 764 768 
853 38 144 143 37 473 769 767 457 
854 473 769 767 457 472 768 765 441 
855 144 142 120 143 769 766 763 767 
856 769 766 763 767 768 764 615 765 
857 445 733 768 472 474 742 776 476 
858 474 742 776 476 446 740 775 475 
859 733 611 764 768 742 738 773 776 
860 742 738 773 776 740 612 771 775 
861 472 768 765 441 476 776 774 460 
862 476 776 774 460 475 775 772 442 
863 768 764 615 765 776 773 770 774 
864 776 773 770 774 775 771 616 772 
865 446 740 775 475 477 749 783 479 
866 477 749 783 479 447 747 782 478 
867 740 612 771 775 749 745 780 783 
868 749 745 780 783 747 613 778 782 
869 475 775 772 442 479 783 781 463 
870 479 783 781 463 478 782 779 443 
871 775 771 616 772 783 780 777 781 
872 783 780 777 781 782 778 617 779 
873 447 747 782 478 480 756 790 482 
874 480 756 790 482 448 754 789 481 
875 747 613 778 782 756 752 787 790 
876 756 752 787 790 754 614 785 789 
877 478 782 779 443 482 790 788 466 
878 482 790 788 466 481 789 786 444 
879 782 778 617 779 790 787 784 788 
880 790 787 784 788 789 785 618 786 
881 448 754 789 481 483 761 794 484 
882 483 761 794 484 111 545 549 110 
883 754 614 785 789 761 759 792 794 
884 761 759 792 794 545 524 547 549 
885 481 789 786 444 484 794 793 469 
886 484 794 793 469 110 549 548 109 
887 789 785 618 786 794 792 791 793 
888 794 792 791 793 549 547 525 548 
889 37 143 146 36 457 767 798 459 
890 457 767 798 459 441 765 797 458 
891 143 120 145 146 767 763 796 798 
892 767 763 796 798 765 615 795 797 
893 36 146 35 4 459 798 433 90 
894 459 798 433 90 458 797 432 91 
895 146 145 34 35 798 796 418 433 
896 798 796 418 433 797 795 372 432 
897 441 765 797 458 460 774 802 462 
898 460 774 802 462 442 772 801 461 
899 765 615 795 797 774 770 800 802 
900 774 770 800 802 772 616 799 801 
901 458 797 432 91 462 802 435 92 
902 462 802 435 92 461 801 434 93 
903 797 795 372 432 802 800 421 435 
904 802 800 421 435 801 799 373 434 
905 442 772 801 461 463 781 806 465 
906 463 781 806 465 443 779 805 464 
907 772 616 799 801 781 777 804 806 
908 781 777 804 806 779 617 803 805 
909 461 801 434 93 465 806 437 94 
910 465 806 437 94 464 805 436 95 
911 801 799 373 434 806 804 424 437 
912 806 804 424 437 805 803 374 436 
913 443 779 805 464 466 788 810 468 
914 466 788 810 468 444 786 809 467 
915 779 617 803 805 788 784 808 810 
916 788 784 808 810 786 618 807 809 
917 464 805 436 95 468 810 439 96 
918 468 810 439 96 467 809 438 97 
919 805 803 374 436 810 808 427 439 
920 810 808 427 439 809 807 375 438 
921 444 786 809 467 469 793 812 470 
922 469 793 812 470 109 548 551 108 
923 786 618 807 809 793 791 811 812 
924 793 791 811 812 548 525 550 551 
925 467 809 438 97 470 812 440 98 
926 470 812 440 98 108 551 107 8 
927 809 807 375 438 812 811 430 440 
928 812 811 430 440 551 550 106 107 
929 10 11 149 133 214 230 819 670 
930 214 230 819 670 198 229 818 668 
931 11 12 147 149 230 228 816 819 
932 230 228 816 819 229 202 814 818 
933 133 149 148 117 670 819 817 667 
934 670 819 817 667 668 818 815 603 
935 149 147 121 148 819 816 813 817 
936 819 816 813 817 818 814 619 815 
937 198 229 818 668 217 233 826 677 
938 217 233 826 677 199 232 825 675 
939 229 202 814 818 233 231 823 826 
940 233 231 823 826 232 203 821 825 
941 668 818 815 603 677 826 824 674 
942 677 826 824 674 675 825 822 604 
943 818 814 619 815 826 823 820 824 
944 826 823 820 824 825 821 620 822 
945 199 232 825 675 220 236 833 684 
946 220 236 833 684 200 235 832 682 
947 232 203 821 825 236 234 830 833 
948 236 234 830 833 235 204 828 832 
949 675 825 822 604 684 833 831 681 
950 684 833 831 681 682 832 829 605 
951 825 821 620 822 833 830 827 831 
952 833 830 827 831 832 828 621 829 
953 200 235 832 682 223 239 840 691 
954 223 239 840 691 201 238 839 689 
955 235 204 828 832 239 237 837 840 
956 239 237 837 840 238 205 835 839 
957 682 832 829 605 691 840 838 688 
958 691 840 838 688 689 839 836 606 
959 832 828 621 829 840 837 834 838 
960 840 837 834 838 839 835 622 836 
961 201 238 839 689 226 241 844 696 
962 226 241 844 696 64 65 554 538 
963 238 205 835 839 241 240 842 844 
964 241 240 842 844 65 66 552 554 
965 689 839 836 606 696 844 843 695 
966 696 844 843 695 538 554 553 522 
967 839 835 622 836 844 842 841 843 
968 844 842 841 843 554 552 526 553 
969 117 148 152 136 667 817 851 702 
970 667 817 851 702 603 815 850 700 
971 148 121 150 152 817 813 848 851 
972 817 813 848 851 815 619 846 850 
973 136 152 151 118 702 851 849 699 
974 702 851 849 699 700 850 847 607 
975 152 150 122 151 851 848 845 849 
976 851 848 845 849 850 846 623 847 
977 603 815 850 700 674 824 858 709 
978 674 824 858 709 604 822 857 707 
979 815 619 846 850 824 820 855 858 
980 824 820 855 858 822 620 853 857 
981 700 850 847 607 709 858 856 706 
982 709 858 856 706 707 857 854 608 
983 850 846 623 847 858 855 852 856 
984 858 855 852 856 857 853 624 854 
985 604 822 857 707 681 831 865 716 
986 681 831 865 716 605 829 864 714 
987 822 620 853 857 831 827 862 865 
988 831 827 862 865 829 621 860 864 
989 707 857 854 608 716 865 863 713 
990 716 865 863 713 714 864 861 609 
991 857 853 624 854 865 862 859 863 
992 865 862 859 863 864 860 625 861 
993 605 829 864 714 688 838 872 723 
994 688 838 872 723 606 836 871 721 
995 829 621 860 864 838 834 869 872 
996 838 834 869 872 836 622 867 871 
997 714 864 861 609 723 872 870 720 
998 723 872 870 720 721 871 868 610 
999 864 860 625 861 872 869 866 870 
1000 872 869 866 870 871 867 626 868 
1001 606 836 871 721 695 843 876 728 
1002 695 843 876 728 522 553 557 541 
1003 836 622 867 871 843 841 874 876 
1004 843 841 874 876 553 526 555 557 
1005 721 871 868 610 728 876 875 727 
1006 728 876 875 727 541 557 556 523 
1007 871 867 626 868 876 874 873 875 
1008 876 874 873 875 557 555 527 556 
1009 118 151 155 139 699 849 883 734 
1010 699 849 883 734 607 847 882 732 
1011 151 122 153 155 849 845 880 883 
1012 849 845 880 883 847 623 878 882 
1013 139 155 154 119 734 883 881 731 
1014 734 883 881 731 732 882 879 611 
1015 155 153 123 154 883 880 877 881 
1016 883 880 877 881 882 878 627 879 
1017 607 847 882 732 706 856 890 741 
1018 706 856 890 741 608 854 889 739 
1019 847 623 878 882 856 852 887 890 
1020 856 852 887 890 854 624 885 889 
1021 732 882 879 611 741 890 888 738 
1022 741 890 888 738 739 889 886 612 
1023 882 878 627 879 890 887 884 888 
1024 890 887 884 888 889 885 628 886 
1025 608 854 889 739 713 863 897 748 
1026 713 863 897 748 609 861 896 746 
1027 854 624 885 889 863 859 894 897 
1028 863 859 894 897 861 625 892 896 
1029 739 889 886 612 748 897 895 745 
1030 748 897 895 745 746 896 893 613 
1031 889 885 628 886 897 894 891 895 
1032 897 894 891 895 896 892 629 893 
1033 609 861 896 746 720 870 904 755 
1034 720 870 904 755 610 868 903 753 
1035 861 625 892 896 870 866 901 904 
1036 870 866 901 904 868 626 899 903 
1037 746 896 893 613 755 904 902 752 
1038 755 904 902 752 753 903 900 614 
1039 896 892 629 893 904 901 898 902 
1040 904 901 898 902 903 899 630 900 
1041 610 868 903 753 727 875 908 760 
1042 727 875 908 760 523 556 560 544 
1043 868 626 899 903 875 873 906 908 
1044 875 873 906 908 556 527 558 560 
1045 753 903 900 614 760 908 907 759 
1046 760 908 907 759 544 560 559 524 
1047 903 899 630 900 908 906 905 907 
1048 908 906 905 907 560 558 528 559 
1049 119 154 158 142 731 881 915 766 
1050 731 881 915 766 611 879 914 764 
1051 154 123 156 158 881 877 912 915 
1052 881 877 912 915 879 627 910 914 
1053 142 158 157 120 766 915 913 763 
1054 766 915 913 763 764 914 911 615 
1055 158 156 124 157 915 912 909 913 
1056 915 912 909 913 914 910 631 911 
1057 611 879 914 764 738 888 922 773 
1058 738 888 922 773 612 886 921 771 
1059 879 627 910 914 888 884 919 922 
1060 888 884 919 922 886 628 917 921 
1061 764 914 911 615 773 922 920 770 
1062 773 922 920 770 771 921 918 616 
1063 914 910 631 911 922 919 916 920 
1064 922 919 916 920 921 917 632 918 
1065 612 886 921 771 745 895 929 780 
1066 745 895 929 780 613 893 928 778 
1067 886 628 917 921 895 891 926 929 
1068 895 891 926 929 893 629 924 928 
1069 771 921 918 616 780 929 927 777 
1070 780 929 927 777 778 928 925 617 
1071 921 917 632 918 929 926 923 927 
1072 929 926 923 927 928 924 633 925 
1073 613 893 928 778 752 902 936 787 
1074 752 902 936 787 614 900 935 785 
1075 893 629 924 928 902 898 933 936 
1076 902 898 933 936 900 630 931 935 
1077 778 928 925 617 787 936 934 784 
1078 787 936 934 784 785 935 932 618 
1079 928 924 633 925 936 933 930 934 
1080 936 933 930 934 935 931 634 932 
1081 614 900 935 785 759 907 940 792 
1082 759 907 940 792 524 559 563 547 
1083 900 630 931 935 907 905 938 940 
1084 907 905 938 940 559 528 561 563 
1085 785 935 932 618 792 940 939 791 
1086 792 940 939 791 547 563 562 525 
1087 935 931 634 932 940 938 937 939 
1088 940 938 937 939 563 561 529 562 
1089 120 157 160 145 763 913 944 796 
1090 763 913 944 796 615 911 943 795 
1091 157 124 159 160 913 909 942 944 
1092 913 909 942 944 911 631 941 943 
1093 145 160 33 34 796 944 420 418 
1094 796 944 420 418 795 943 419 372 
1095 160 159 32 33 944 942 404 420 
1096 944 942 404 420 943 941 368 419 
1097 615 911 943 795 770 920 948 800 
1098 770 920 948 800 616 918 947 799 
1099 911 631 941 943 920 916 946 948 
1100 920 916 946 948 918 632 945 947 
1101 795 943 419 372 800 948 423 421 
1102 800 948 423 421 799 947 422 373 
1103 943 941 368 419 948 946 407 423 
1104 948 946 407 423 947 945 369 422 
1105 616 918 947 799 777 927 952 804 
1106 777 927 952 804 617 925 951 803 
1107 918 632 945 947 927 923 950 952 
1108 927 923 950 952 925 633 949 951 
1109 799 947 422 373 804 952 426 424 
1110 804 952 426 424 803 951 425 374 
1111 947 945 369 422 952 950 410 426 
1112 952 950 410 426 951 949 370 425 
1113 617 925 951 803 784 934 956 808 
1114 784 934 956 808 618 932 955 807 
1115 925 633 949 951 934 930 954 956 
1116 934 930 954 956 932 634 953 955 
1117 803 951 425 374 808 956 429 427 
1118 808 956 429 427 807 955 428 375 
1119 951 949 370 425 956 954 413 429 
1120 956 954 413 429 955 953 371 428 
1121 618 932 955 807 791 939 958 811 
1122 791 939 958 811 525 562 565 550 
1123 932 634 953 955 939 937 957 958 
1124 939 937 957 958 562 529 564 565 
1125 807 955 428 375 811 958 431 430 
1126 811 958 431 430 550 565 105 106 
1127 955 953 371 428 958 957 416 431 
1128 958 957 416 431 565 564 104 105 
1129 12 13 163 147 228 244 965 816 
1130 228 244 965 816 202 243 964 814 
1131 13 14 161 163 244 242 962 965 
1132 244 242 962 965 243 206 960 964 
1133 147 163 162 121 816 965 963 813 
1134 816 965 963 813 814 964 961 619 
1135 163 161 125 162 965 962 959 963 
1136 965 962 959 963 964 960 635 961 
1137 202 243 964 814 231 247 972 823 
1138 231 247 972 823 203 246 971 821 
1139 243 206 960 964 247 245 969 972 
1140 247 245 969 972 246 207 967 971 
1141 814 964 961 619 823 972 970 820 
1142 823 972 970 820 821 971 968 620 
1143 964 960 635 961 972 969 966 970 
1144 972 969 966 970 971 967 636 968 
1145 203 246 971 821 234 250 979 830 
1146 234 250 979 830 204 249 978 828 
1147 246 207 967 971 250 248 976 979 
1148 250 248 976 979 249 208 974 978 
1149 821 971 968 620 830 979 977 827 
1150 830 979 977 827 828 978 975 621 
1151 971 967 636 968 979 976 973 977 
1152 979 976 973 977 978 974 637 975 
1153 204 249 978 828 237 253 986 837 
1154 237 253 986 837 205 252 985 835 
1155 249 208 974 978 253 251 983 986 
1156 253 251 983 986 252 209 981 985 
1157 828 978 975 621 837 986 984 834 
1158 837 986 984 834 835 985 982 622 
1159 978 974 637 975 986 983 980 984 
1160 986 983 980 984 985 981 638 982 
1161 205 252 985 835 240 255 990 842 
1162 240 255 990 842 66 67 568 552 
1163 252 209 981 985 255 254 988 990 
1164 255 254 988 990 67 68 566 568 
1165 835 985 982 622 842 990 989 841 
1166 842 990 989 841 552 568 567 526 
1167 985 981 638 982 990 988 987 989 
1168 990 988 987 989 568 566 530 567 
1169 121 162 166 150 813 963 997 848 
1170 813 963 997 848 619 961 996 846 
1171 162 125 164 166 963 959 994 997 
1172 963 959 994 997 961 635 992 996 
1173 150 166 165 122 848 997 995 845 
1174 848 997 995 845 846 996 993 623 
1175 166 164 126 165 997 994 991 995 
1176 997 994 991 995 996 992 639 993 
1177 619 961 996 846 820 970 1004 855 
1178 820 970 1004 855 620 968 1003 853 
1179 961 635 992 996 970 966 1001 1004 
1180 970 966 1001 1004 968 636 999 1003 
1181 846 996 993 623 855 1004 1002 852 
1182 855 1004 1002 852 853 1003 1000 624 
1183 996 992 639 993 1004 1001 998 1002 
1184 1004 1001 998 1002 1003 999 640 1000 
1185 620 968 1003 853 827 977 1011 862 
1186 827 977 1011 862 621 975 1010 860 
1187 968 636 999 1003 977 973 1008 1011 
1188 977 973 1008 1011 975 637 1006 1010 
1189 853 1003 1000 624 862 1011 1009 859 
1190 862 1011 1009 859 860 1010 1007 625 
1191 1003 999 640 1000 1011 1008 1005 1009 
1192 1011 1008 1005 1009 1010 1006 641 1007 
1193 621 975 1010 860 834 984 1018 869 
1194 834 984 1018 869 622 982 1017 867 
1195 975 637 1006 1010 984 980 1015 1018 
1196 984 980 1015 1018 982 638 1013 1017 
1197 860 1010 1007 625 869 1018 1016 866 
1198 869 1018 1016 866 867 1017 1014 626 
1199 1010 1006 641 1007 1018 1015 1012 1016 
1200 1018 1015 1012 1016 1017 1013 642 1014 
1201 622 982 1017 867 841 989 1022 874 
1202 841 989 1022 874 526 567 571 555 
1203 982 638 1013 1017 989 987 1020 1022 
1204 989 987 1020 1022 567 530 569 571 
1205 867 1017 1014 626 874 1022 1021 873 
1206 874 1022 1021 873 555 571 570 527 
1207 1017 1013 642 1014 1022 1020 1019 1021 
1208 1022 1020 1019 1021 571 569 531 570 
1209 122 165 169 153 845 995 1029 880 
1210 845 995 1029 880 623 993 1028 878 
1211 165 126 167 169 995 991 1026 1029 
1212 995 991 1026 1029 993 639 1024 1028 
1213 153 169 168 123 880 1029 1027 877 
1214 880 1029 1027 877 878 1028 1025 627 
1215 169 167 127 168 1029 1026 1023 1027 
1216 1029 1026 1023 1027 1028 1024 643 1025 
1217 623 993 1028 878 852 1002 1036 887 
1218 852 1002 1036 887 624 1000 1035 885 
1219 993 639 1024 1028 1002 998 1033 1036 
1220 1002 998 1033 1036 1000 640 1031 1035 
1221 878 1028 1025 627 887 1036 1034 884 
1222 887 1036 1034 884 885 1035 1032 628 
1223 1028 1024 643 1025 1036 1033 1030 1034 
1224 1036 1033 1030 1034 1035 1031 644 1032 
1225 624 1000 1035 885 859 1009 1043 894 
1226 859 1009 1043 894 625 1007 1042 892 
1227 1000 640 1031 1035 1009 1005 1040 1043 
1228 1009 1005 1040 1043 1007 641 1038 1042 
1229 885 1035 1032 628 894 1043 1041 891 
1230 894 1043 1041 891 892 1042 1039 629 
1231 1035 1031 644 1032 1043 1040 1037 1041 
1232 1043 1040 1037 1041 1042 1038 645 1039 
1233 625 1007 1042 892 866 1016 1050 901 
1234 866 1016 1050 901 626 1014 1049 899 
1235 1007 641 1038 1042 1016 1012 1047 1050 
1236 1016 1012 1047 1050 1014 642 1045 1049 
1237 892 1042 1039 629 901 1050 1048 898 
1238 901 1050 1048 898 899 1049 1046 630 
1239 1042 1038 645 1039 1050 1047 1044 1048 
1240 1050 1047 1044 1048 1049 1045 646 1046 
1241 626 1014 1049 899 873 1021 1054 906 
1242 873 1021 1054 906 527 570 574 558 
1243 1014 642 1045 1049 1021 1019 1052 1054 
1244 1021 1019 1052 1054 570 531 572 574 
1245 899 1049 1046 630 906 1054 1053 905 
1246 906 1054 1053 905 558 574 573 528 
1247 1049 1045 646 1046 1054 1052 1051 1053 
1248 1054 1052 1051 1053 574 572 532 573 
1249 123 168 172 156 877 1027 1061 912 
1250 877 1027 1061 912 627 1025 1060 910 
1251 168 127 170 172 1027 1023 1058 1061 
1252 1027 1023 1058 1061 1025 643 1056 1060 
1253 156 172 171 124 912 1061 1059 909 
1254 912 1061 1059 909 910 1060 1057 631 
1255 172 170 128 171 1061 1058 1055 1059 
1256 1061 1058 1055 1059 1060 1056 647 1057 
1257 627 1025 1060 910 884 1034 1068 919 
1258 884 1034 1068 919 628 1032 1067 917 
1259 1025 643 1056 1060 1034 1030 1065 1068 
1260 1034 1030 1065 1068 1032 644 1063 1067 
1261 910 1060 1057 631 919 1068 1066 916 
1262 919 1068 1066 916 917 1067 1064 632 
1263 1060 1056 647 1057 1068 1065 1062 1066 
1264 1068 1065 1062 1066 1067 1063 648 1064 
1265 628 1032 1067 917 891 1041 1075 926 
1266 891 1041 1075 926 629 1039 1074 924 
1267 1032 644 1063 1067 1041 1037 1072 1075 
1268 1041 1037 1072 1075 1039 645 1070 1074 
1269 917 1067 1064 632 926 1075 1073 923 
1270 926 1075 1073 923 924 1074 1071 633 
1271 1067 1063 648 1064 1075 1072 1069 1073 
1272 1075 1072 1069 1073 1074 1070 649 1071 
1273 629 1039 1074 924 898 1048 1082 933 
1274 898 1048 1082 933 630 1046 1081 931 
1275 1039 645 1070 1074 1048 1044 1079 1082 
1276 1048 1044 1079 1082 1046 646 1077 1081 
1277 924 1074 1071 633 933 1082 1080 930 
1278 933 1082 1080 930 931 1081 1078 634 
1279 1074 1070 649 1071 1082 1079 1076 1080 
1280 1082 1079 1076 1080 1081 1077 650 1078 
1281 630 1046 1081 931 905 1053 1086 938 
1282 905 1053 1086 938 528 573 577 561 
1283 1046 646 1077 1081 1053 1051 1084 1086 
1284 1053 1051 1084 1086 573 532 575 577 
1285 931 1081 1078 634 938 1086 1085 937 
1286 938 1086 1085 937 561 577 576 529 
1287 1081 1077 650 1078 1086 1084 1083 1085 
1288 1086 1084 1083 1085 577 575 533 576 
1289 124 171 174 159 909 1059 1090 942 
1290 909 1059 1090 942 631 1057 1089 941 
1291 171 128 173 174 1059 1055 1088 1090 
1292 1059 1055 1088 1090 1057 647 1087 1089 
1293 159 174 31 32 942 1090 406 404 
1294 942 1090 406 404 941 1089 405 368 
1295 174 173 30 31 1090 1088 390 406 
1296 1090 1088 390 406 1089 1087 364 405 
1297 631 1057 1089 941 916 1066 1094 946 
1298 916 1066 1094 946 632 1064 1093 945 
1299 1057 647 1087 1089 1066 1062 1092 1094 
1300 1066 1062 1092 1094 1064 648 1091 1093 
1301 941 1089 405 368 946 1094 409 407 
1302 946 1094 409 407 945 1093 408 369 
1303 1089 1087 364 405 1094 1092 393 409 
1304 1094 1092 393 409 1093 1091 365 408 
1305 632 1064 1093 945 923 1073 1098 950 
1306 923 1073 1098 950 633 1071 1097 949 
1307 1064 648 1091 1093 1073 1069 1096 1098 
1308 1073 1069 1096 1098 1071 649 1095 1097 
1309 945 1093 408 369 950 1098 412 410 
1310 950 1098 412 410 949 1097 411 370 
1311 1093 1091 365 408 1098 1096 396 412 
1312 1098 1096 396 412 1097 1095 366 411 
1313 633 1071 1097 949 930 1080 1102 954 
1314 930 1080 1102 954 634 1078 1101 953 
1315 1071 649 1095 1097 1080 1076 1100 1102 
1316 1080 1076 1100 1102 1078 650 1099 1101 
1317 949 1097 411 370 954 1102 415 413 
1318 954 1102 415 413 953 1101 414 371 
1319 1097 1095 366 411 1102 1100 399 415 
1320 1102 1100 399 415 1101 1099 367 414 
1321 634 1078 1101 953 937 1085 1104 957 
1322 937 1085 1104 957 529 576 579 564 
1323 1078 650 1099 1101 1085 1083 1103 1104 
1324 1085 1083 1103 1104 576 533 578 579 
1325 953 1101 414 371 957 1104 417 416 
1326 957 1104 417 416 564 579 103 104 
1327 1101 1099 367 414 1104 1103 402 417 
1328 1104 1103 402 417 579 578 102 103 
1329 14 15 177 161 242 258 1111 962 
1330 242 258 1111 962 206 257 1110 960 
1331 15 16 175 177 258 256 1108 1111 
1332 258 256 1108 1111 257 210 1106 1110 
1333 161 177 176 125 962 1111 1109 959 
1334 962 1111 1109 959 960 1110 1107 635 
1335 177 175 129 176 1111 1108 1105 1109 
1336 1111 1108 1105 1109 1110 1106 651 1107 
1337 206 257 1110 960 245 261 1118 969 
1338 245 261 1118 969 207 260 1117 967 
1339 257 210 1106 1110 261 259 1115 1118 
1340 261 259 1115 1118 260 211 1113 1117 
1341 960 1110 1107 635 969 1118 1116 966 
1342 969 1118 1116 966 967 1117 1114 636 
1343 1110 1106 651 1107 1118 1115 1112 1116 
1344 1118 1115 1112 1116 1117 1113 652 1114 
1345 207 260 1117 967 248 264 1125 976 
1346 248 264 1125 976 208 263 1124 974 
1347 260 211 1113 1117 264 262 1122 1125 
1348 264 262 1122 1125 263 212 1120 1124 
1349 967 1117 1114 636 976 1125 1123 973 
1350 976 1125 1123 973 974 1124 1121 637 
1351 1117 1113 652 1114 1125 1122 1119 1123 
1352 1125 1122 1119 1123 1124 1120 653 1121 
1353 208 263 1124 974 251 267 1132 983 
1354 251 267 1132 983 209 266 1131 981 
1355 263 212 1120 1124 267 265 1129 1132 
1356 267 265 1129 1132 266 213 1127 1131 
1357 974 1124 1121 637 983 1132 1130 980 
1358 983 1132 1130 980 981 1131 1128 638 
1359 1124 1120 653 1121 1132 1129 1126 1130 
1360 1132 1129 1126 1130 1131 1127 654 1128 
1361 209 266 1131 981 254 269 1136 988 
1362 254 269 1136 988 68 69 582 566 
1363 266 213 1127 1131 269 268 1134 1136 
1364 269 268 1134 1136 69 70 580 582 
1365 981 1131 1128 638 988 1136 1135 987 
1366 988 1136 1135 987 566 582 581 530 
1367 1131 1127 654 1128 1136 1134 1133 1135 
1368 1136 1134 1133 1135 582 580 534 581 
1369 125 176 180 164 959 1109 1143 994 
1370 959 1109 1143 994 635 1107 1142 992 
1371 176 129 178 180 1109 1105 1140 1143 
1372 1109 1105 1140 1143 1107 651 1138 1142 
1373 164 180 179 126 994 1143 1141 991 
1374 994 1143 1141 991 992 1142 1139 639 
1375 180 178 130 179 1143 1140 1137 1141 
1376 1143 1140 1137 1141 1142 1138 655 1139 
1377 635 1107 1142 992 966 1116 1150 1001 
1378 966 1116 1150 1001 636 1114 1149 999 
1379 1107 651 1138 1142 1116 1112 1147 1150 
1380 1116 1112 1147 1150 1114 652 1145 1149 
1381 992 1142 1139 639 1001 1150 1148 998 
1382 1001 1150 1148 998 999 1149 1146 640 
1383 1142 1138 655 1139 1150 1147 1144 1148 
1384 1150 1147 1144 1148 1149 1145 656 1146 
1385 636 1114 1149 999 973 1123 1157 1008 
1386 973 1123 1157 1008 637 1121 1156 1006 
1387 1114 652 1145 1149 1123 1119 1154 1157 
1388 1123 1119 1154 1157 1121 653 1152 1156 
1389 999 1149 1146 640 1008 1157 1155 1005 
1390 1008 1157 1155 1005 1006 1156 1153 641 
1391 1149 1145 656 1146 1157 1154 1151 1155 
1392 1157 1154 1151 1155 1156 1152 657 1153 
1393 637 1121 1156 1006 980 1130 1164 1015 
1394 980 1130 1164 1015 638 1128 1163 1013 
1395 1121 653 1152 1156 1130 1126 1161 1164 
1396 1130 1126 1161 1164 1128 654 1159 1163 
1397 1006 1156 1153 641 1015 1164 1162 1012 
1398 1015 1164 1162 1012 1013 1163 1160 642 
1399 1156 1152 657 1153 1164 1161 1158 1162 
1400 1164 1161 1158 1162 1163 1159 658 1160 
1401 638 1128 1163 1013 987 1135 1168 1020 
1402 987 1135 1168 1020 530 581 585 569 
1403 1128 654 1159 1163 1135 1133 1166 1168 
1404 1135 1133 1166 1168 581 534 583 585 
1405 1013 1163 1160 642 1020 1168 1167 1019 
1406 1020 1168 1167 1019 569 585 584 531 
1407 1163 1159 658 1160 1168 1166 1165 1167 
1408 1168 1166 1165 1167 585 583 535 584 
1409 126 179 183 167 991 1141 1175 1026 
1410 991 1141 1175 1026 639 1139 1174 1024 
1411 179 130 181 183 1141 1137 1172 1175 
1412 1141 1137 1172 1175 1139 655 1170 1174 
1413 167 183 182 127 1026 1175 1173 1023 
1414 1026 1175 1173 1023 1024 1174 1171 643 
1415 183 181 131 182 1175 1172 1169 1173 
1416 1175 1172 1169 1173 1174 1170 659 1171 
1417 639 1139 1174 1024 998 1148 1182 1033 
1418 998 1148 1182 1033 640 1146 1181 1031 
1419 1139 655 1170 1174 1148 1144 1179 1182 
1420 1148 1144 1179 1182 1146 656 1177 1181 
1421 1024 1174 1171 643 1033 1182 1180 1030 
1422 1033 1182 1180 1030 1031 1181 1178 644 
1423 1174 1170 659 1171 1182 1179 1176 1180 
1424 1182 1179 1176 1180 1181 1177 660 1178 
1425 640 1146 1181 1031 1005 1155 1189 1040 
1426 1005 1155 1189 1040 641 1153 1188 1038 
1427 1146 656 1177 1181 1155 1151 1186 1189 
1428 1155 1151 1186 1189 1153 657 1184 1188 
1429 1031 1181 1178 644 1040 1189 1187 1037 
1430 1040 1189 1187 1037 1038 1188 1185 645 
1431 1181 1177 660 1178 1189 1186 1183 1187 
1432 1189 1186 1183 1187 1188 1184 661 1185 
1433 641 1153 1188 1038 1012 1162 1196 1047 
1434 1012 1162 1196 1047 642 1160 1195 1045 
1435 1153 657 1184 1188 1162 1158 1193 1196 
1436 1162 1158 1193 1196 1160 658 1191 1195 
1437 1038 1188 1185 645 1047 1196 1194 1044 
1438 1047 1196 1194 1044 1045 1195 1192 646 
1439 1188 1184 661 1185 1196 1193 1190 1194 
1440 1196 1193 1190 1194 1195 1191 662 1192 
1441 642 1160 1195 1045 1019 1167 1200 1052 
1442 1019 1167 1200 1052 531 584 588 572 
1443 1160 658 1191 1195 1167 1165 1198 1200 
1444 1167 1165 1198 1200 584 535 586 588 
1445 1045 1195 1192 646 1052 1200 1199 1051 
1446 1052 1200 1199 1051 572 588 587 532 
1447 1195 1191 662 1192 1200 1198 1197 1199 
1448 1200 1198 1197 1199 588 586 536 587 
1449 127 182 186 170 1023 1173 1207 1058 
1450 1023 1173 1207 1058 643 1171 1206 1056 
1451 182 131 184 186 1173 1169 1204 1207 
1452 1173 1169 1204 1207 1171 659 1202 1206 
1453 170 186 185 128 1058 1207 1205 1055 
1454 1058 1207 1205 1055 1056 1206 1203 647 
1455 186 184 132 185 1207 1204 1201 1205 
1456 1207 1204 1201 1205 1206 1202 663 1203 
1457 643 1171 1206 1056 1030 1180 1214 1065 
1458 1030 1180 1214 1065 644 1178 1213 1063 
1459 1171 659 1202 1206 1180 1176 1211 1214 
1460 1180 1176 1211 1214 1178 660 1209 1213 
1461 1056 1206 1203 647 1065 1214 1212 1062 
1462 1065 1214 1212 1062 1063 1213 1210 648 
1463 1206 1202 663 1203 1214 1211 1208 1212 
1464 1214 1211 1208 1212 1213 1209 664 1210 
1465 644 1178 1213 1063 1037 1187 1221 1072 
1466 1037 1187 1221 1072 645 1185 1220 1070 
1467 1178 660 1209 1213 1187 1183 1218 1221 
1468 1187 1183 1218 1221 1185 661 1216 1220 
1469 1063 1213 1210 648 1072 1221 1219 1069 
1470 1072 1221 1219 1069 1070 1220 1217 649 
1471 1213 1209 664 1210 1221 1218 1215 1219 
1472 1221 1218 1215 1219 1220 1216 665 1217 
1473 645 1185 1220 1070 1044 1194 1228 1079 
1474 1044 1194 1228 1079 646 1192 1227 1077 
1475 1185 661 1216 1220 1194 1190 1225 1228 
1476 1194 1190 1225 1228 1192 662 1223 1227 
1477 1070 1220 1217 649 1079 1228 1226 1076 
1478 1079 1228 1226 1076 1077 1227 1224 650 
1479 1220 1216 665 1217 1228 1225 1222 1226 
1480 1228 1225 1222 1226 1227 1223 666 1224 
1481 646 1192 1227 1077 1051 1199 1232 1084 
1482 1051 1199 1232 1084 532 587 591 575 
1483 1192 662 1223 1227 1199 1197 1230 1232 
1484 1199 1197 1230 1232 587 536 589 591 
1485 1077 1227 1224 650 1084 1232 1231 1083 
1486 1084 1232 1231 1083 575 591 590 533 
1487 1227 1223 666 1224 1232 1230 1229 1231 
1488 1232 1230 1229 1231 591 589 537 590 
1489 128 185 188 173 1055 1205 1236 1088 
1490 1055 1205 1236 1088 647 1203 1235 1087 
1491 185 132 187 188 1205 1201 1234 1236 
1492 1205 1201 1234 1236 1203 663 1233 1235 
1493 173 188 29 30 1088 1236 392 390 
1494 1088 1236 392 390 1087 1235 391 364 
1495 188 187 28 29 1236 1234 376 392 
1496 1236 1234 376 392 1235 1233 360 391 
1497 647 1203 1235 1087 1062 1212 1240 1092 
1498 1062 1212 1240 1092 648 1210 1239 1091 
1499 1203 663 1233 1235 1212 1208 1238 1240 
1500 1212 1208 1238 1240 1210 664 1237 1239 
1501 1087 1235 391 364 1092 1240 395 393 
1502 1092 1240 395 393 1091 1239 394 365 
1503 1235 1233 360 391 1240 1238 379 395 
1504 1240 1238 379 395 1239 1237 361 394 
1505 648 1210 1239 1091 1069 1219 1244 1096 
1506 1069 1219 1244 1096 649 1217 1243 1095 
1507 1210 664 1237 1239 1219 1215 1242 1244 
1508 1219 1215 1242 1244 1217 665 1241 1243 
1509 1091 1239 394 365 1096 1244 398 396 
1510 1096 1244 398 396 1095 1243 397 366 
1511 1239 1237 361 394 1244 1242 382 398 
1512 1244 1242 382 398 1243 1241 362 397 
1513 649 1217 1243 1095 1076 1226 1248 1100 
1514 1076 1226 1248 1100 650 1224 1247 1099 
1515 1217 665 1241 1243 1226 1222 1246 1248 
1516 1226 1222 1246 1248 1224 666 1245 1247 
1517 1095 1243 397 366 1100 1248 401 399 
1518 1100 1248 401 399 1099 1247 400 367 
1519 1243 1241 362 397 1248 1246 385 401 
1520 1248 1246 385 401 1247 1245 363 400 
1521 650 1224 1247 1099 1083 1231 1250 1103 
1522 1083 1231 1250 1103 533 590 593 578 
1523 1224 666 1245 1247 1231 1229 1249 1250 
1524 1231 1229 1249 1250 590 537 592 593 
1525 1099 1247 400 367 1103 1250 403 402 
1526 1103 1250 403 402 578 593 101 102 
1527 1247 1245 363 400 1250 1249 388 403 
1528 1250 1249 388 403 593 592 100 101 
1529 16 17 190 175 256 271 1254 1108 
1530 256 271 1254 1108 210 270 1253 1106 
1531 17 2 18 190 271 54 297 1254 
1532 271 54 297 1254 270 55 296 1253 
1533 175 190 189 129 1108 1254 1252 1105 
1534 1108 1254 1252 1105 1106 1253 1251 651 
1535 190 18 19 189 1254 297 295 1252 
1536 1254 297 295 1252 1253 296 279 1251 
1537 210 270 1253 1106 259 273 1258 1115 
1538 259 273 1258 1115 211 272 1257 1113 
1539 270 55 296 1253 273 56 300 1258 
1540 273 56 300 1258 272 57 299 1257 
1541 1106 1253 1251 651 1115 1258 1256 1112 
1542 1115 1258 1256 1112 1113 1257 1255 652 
1543 1253 296 279 1251 1258 300 298 1256 
1544 1258 300 298 1256 1257 299 280 1255 
1545 211 272 1257 1113 262 275 1262 1122 
1546 262 275 1262 1122 212 274 1261 1120 
1547 272 57 299 1257 275 58 303 1262 
1548 275 58 303 1262 274 59 302 1261 
1549 1113 1257 1255 652 1122 1262 1260 1119 
1550 1122 1262 1260 1119 1120 1261 1259 653 
1551 1257 299 280 1255 1262 303 301 1260 
1552 1262 303 301 1260 1261 302 281 1259 
1553 212 274 1261 1120 265 277 1266 1129 
1554 265 277 1266 1129 213 276 1265 1127 
1555 274 59 302 1261 277 60 306 1266 
1556 277 60 306 1266 276 61 305 1265 
1557 1120 1261 1259 653 1129 1266 1264 1126 
1558 1129 1266 1264 1126 1127 1265 1263 654 
1559 1261 302 281 1259 1266 306 304 1264 
1560 1266 306 304 1264 1265 305 282 1263 
1561 213 276 1265 1127 268 278 1268 1134 
1562 268 278 1268 1134 70 71 595 580 
1563 276 61 305 1265 278 62 308 1268 
1564 278 62 308 1268 71 6 81 595 
1565 1127 1265 1263 654 1134 1268 1267 1133 
1566 1134 1268 1267 1133 580 595 594 534 
1567 1265 305 282 1263 1268 308 307 1267 
1568 1268 308 307 1267 595 81 82 594 
1569 129 189 192 178 1105 1252 1272 1140 
1570 1105 1252 1272 1140 651 1251 1271 1138 
1571 189 19 20 192 1252 295 311 1272 
1572 1252 295 311 1272 1251 279 310 1271 
1573 178 192 191 130 1140 1272 1270 1137 
1574 1140 1272 1270 1137 1138 1271 1269 655 
1575 192 20 21 191 1272 311 309 1270 
1576 1272 311 309 1270 1271 310 283 1269 
1577 651 1251 1271 1138 1112 1256 1276 1147 
1578 1112 1256 1276 1147 652 1255 1275 1145 
1579 1251 279 310 1271 1256 298 314 1276 
1580 1256 298 314 1276 1255 280 313 1275 
1581 1138 1271 1269 655 1147 1276 1274 1144 
1582 1147 1276 1274 1144 1145 1275 1273 656 
1583 1271 310 283 1269 1276 314 312 1274 
1584 1276 314 312 1274 1275 313 284 1273 
1585 652 1255 1275 1145 1119 1260 1280 1154 
1586 1119 1260 1280 1154 653 1259 1279 1152 
1587 1255 280 313 1275 1260 301 317 1280 
1588 1260 301 317 1280 1259 281 316 1279 
1589 1145 1275 1273 656 1154 1280 1278 1151 
1590 1154 1280 1278 1151 1152 1279 1277 657 
1591 1275 313 284 1273 1280 317 315 1278 
1592 1280 317 315 1278 1279 316 285 1277 
1593 653 1259 1279 1152 1126 1264 1284 1161 
1594 1126 1264 1284 1161 654 1263 1283 1159 
1595 1259 281 316 1279 1264 304 320 1284 
1596 1264 304 320 1284 1263 282 319 1283 
1597 1152 1279 1277 657 1161 1284 1282 1158 
1598 1161 1284 1282 1158 1159 1283 1281 658 
1599 1279 316 285 1277 1284 320 318 1282 
1600 1284 320 318 1282 1283 319 286 1281 
1601 654 1263 1283 1159 1133 1267 1286 1166 
1602 1133 1267 1286 1166 534 594 597 583 
1603 1263 282 319 1283 1267 307 322 1286 
1604 1267 307 322 1286 594 82 83 597 
1605 1159 1283 1281 658 1166 1286 1285 1165 
1606 1166 1286 1285 1165 583 597 596 535 
1607 1283 319 286 1281 1286 322 321 1285 
1608 1286 322 321 1285 597 83 84 596 
1609 130 191 194 181 1137 1270 1290 1172 
1610 1137 1270 1290 1172 655 1269 1289 1170 
1611 191 21 22 194 1270 309 325 1290 
1612 1270 309 325 1290 1269 283 324 1289 
1613 181 194 193 131 1172 1290 1288 1169 
1614 1172 1290 1288 1169 1170 1289 1287 659 
1615 194 22 23 193 1290 325 323 1288 
1616 1290 325 323 1288 1289 324 287 1287 
1617 655 1269 1289 1170 1144 1274 1294 1179 
1618 1144 1274 1294 1179 656 1273 1293 1177 
1619 1269 283 324 1289 1274 312 328 1294 
1620 1274 312 328 1294 1273 284 327 1293 
1621 1170 1289 1287 659 1179 1294 1292 1176 
1622 1179 1294 1292 1176 1177 1293 1291 660 
1623 1289 324 287 1287 1294 328 326 1292 
1624 1294 328 326 1292 1293 327 288 1291 
1625 656 1273 1293 1177 1151 1278 1298 1186 
1626 1151 1278 1298 1186 657 1277 1297 1184 
1627 1273 284 327 1293 1278 315 331 1298 
1628 1278 315 331 1298 1277 285 330 1297 
1629 1177 1293 1291 660 1186 1298 1296 1183 
1630 1186 1298 1296 1183 1184 1297 1295 661 
1631 1293 327 288 1291 1298 331 329 1296 
1632 1298 331 329 1296 1297 330 289 1295 
1633 657 1277 1297 1184 1158 1282 1302 1193 
1634 1158 1282 1302 1193 658 1281 1301 1191 
1635 1277 285 330 1297 1282 318 334 1302 
1636 1282 318 334 1302 1281 286 333 1301 
1637 1184 1297 1295 661 1193 1302 1300 1190 
1638 1193 1302 1300 1190 1191 1301 1299 662 
1639 1297 330 289 1295 1302 334 332 1300 
1640 1302 334 332 1300 1301 333 290 1299 
1641 658 1281 1301 1191 1165 1285 1304 1198 
1642 1165 1285 1304 1198 535 596 599 586 
1643 1281 286 333 1301 1285 321 336 1304 
1644 1285 321 336 1304 596 84 85 599 
1645 1191 1301 1299 662 1198 1304 1303 1197 
1646 1198 1304 1303 1197 586 599 598 536 
1647 1301 333 290 1299 1304 336 335 1303 
1648 1304 336 335 1303 599 85 86 598 
1649 131 193 196 184 1169 1288 1308 1204 
1650 1169 1288 1308 1204 659 1287 1307 1202 
1651 193 23 24 196 1288 323 339 1308 
1652 1288 323 339 1308 1287 287 338 1307 
1653 184 196 195 132 1204 1308 1306 1201 
1654 1204 1308 1306 1201 1202 1307 1305 663 
1655 196 24 25 195 1308 339 337 1306 
1656 1308 339 337 1306 1307 338 291 1305 
1657 659 1287 1307 1202 1176 1292 1312 1211 
1658 1176 1292 1312 1211 660 1291 1311 1209 
1659 1287 287 338 1307 1292 326 342 1312 
1660 1292 326 342 1312 1291 288 341 1311 
1661 1202 1307 1305 663 1211 1312 1310 1208 
1662 1211 1312 1310 1208 1209 1311 1309 664 
1663 1307 338 291 1305 1312 342 340 1310 
1664 1312 342 340 1310 1311 341 292 1309 
1665 660 1291 1311 1209 1183 1296 1316 1218 
1666 1183 1296 1316 1218 661 1295 1315 1216 
1667 1291 288 341 1311 1296 329 345 1316 
1668 1296 329 345 1316 1295 289 344 1315 
1669 1209 1311 1309 664 1218 1316 1314 1215 
1670 1218 1316 1314 1215 1216 1315 1313 665 
1671 1311 341 292 1309 1316 345 343 1314 
1672 1316 345 343 1314 1315 344 293 1313 
1673 661 1295 1315 1216 1190 1300 1320 1225 
1674 1190 1300 1320 1225 662 1299 1319 1223 
1675 1295 289 344 1315 1300 332 348 1320 
1676 1300 332 348 1320 1299 290 347 1319 
1677 1216 1315 1313 665 1225 1320 1318 1222 
1678 1225 1320 1318 1222 1223 1319 1317 666 
1679 1315 344 293 1313 1320 348 346 1318 
1680 1320 348 346 1318 1319 347 294 1317 
1681 662 1299 1319 1223 1197 1303 1322 1230 
1682 1197 1303 1322 1230 536 598 601 589 
1683 1299 290 347 1319 1303 335 350 1322 
1684 1303 335 350 1322 598 86 87 601 
1685 1223 1319 1317 666 1230 1322 1321 1229 
1686 1230 1322 1321 1229 589 601 600 537 
1687 1319 347 294 1317 1322 350 349 1321 
1688 1322 350 349 1321 601 87 88 600 
1689 132 195 197 187 1201 1306 1324 1234 
1690 1201 1306 1324 1234 663 1305 1323 1233 
1691 195 25 26 197 1306 337 352 1324 
1692 1306 337 352 1324 1305 291 351 1323 
1693 187 197 27 28 1234 1324 378 376 
1694 1234 1324 378 376 1233 1323 377 360 
1695 197 26 3 27 1324 352 72 378 
1696 1324 352 72 378 1323 351 73 377 
1697 663 1305 1323 1233 1208 1310 1326 1238 
1698 1208 1310 1326 1238 664 1309 1325 1237 
1699 1305 291 351 1323 1310 340 354 1326 
1700 1310 340 354 1326 1309 292 353 1325 
1701 1233 1323 377 360 1238 1326 381 379 
1702 1238 1326 381 379 1237 1325 380 361 
1703 1323 351 73 377 1326 354 74 381 
1704 1326 354 74 381 1325 353 75 380 
1705 664 1309 1325 1237 1215 1314 1328 1242 
1706 1215 1314 1328 1242 665 1313 1327 1241 
1707 1309 292 353 1325 1314 343 356 1328 
1708 1314 343 356 1328 1313 293 355 1327 
1709 1237 1325 380 361 1242 1328 384 382 
1710 1242 1328 384 382 1241 1327 383 362 
1711 1325 353 75 380 1328 356 76 384 
1712 1328 356 76 384 1327 355 77 383 
1713 665 1313 1327 1241 1222 1318 1330 1246 
1714 1222 1318 1330 1246 666 1317 1329 1245 
1715 1313 293 355 1327 1318 346 358 1330 
1716 1318 346 358 1330 1317 294 357 1329 
1717 1241 1327 383 362 1246 1330 387 385 
1718 1246 1330 387 385 1245 1329 386 363 
1719 1327 355 77 383 1330 358 78 387 
1720 1330 358 78 387 1329 357 79 386 
1721 666 1317 1329 1245 1229 1321 1331 1249 
1722 1229 1321 1331 1249 537 600 602 592 
1723 1317 294 357 1329 1321 349 359 1331 
1724 1321 349 359 1331 600 88 89 602 
1725 1245 1329 386 363 1249 1331 389 388 
1726 1249 1331 389 388 592 602 99 100 
1727 1329 357 79 386 1331 359 80 389 
1728 1331 359 80 389 602 89 7 99 
$EndElements
