$MeshFormat
4.1 0 8
$EndMeshFormat
$PhysicalNames
6
0 20 "PointsBoundary"
1 10 "CurveFree"
1 11 "CurveFixed"
1 12 "CurveTraction"
2 1 "SurfaceMat1"
2 2 "SurfaceMat2"
$EndPhysicalNames
$Entities
6 7 2 0
1 25 50 0 1 20 
2 25 0 0 1 20 
3 0 50 0 1 20 
4 0 0 0 1 20 
5 50 50 0 1 20 
6 50 0 0 1 20 
1 24.9999999 -1.000000011686097e-07 -1e-07 25.0000001 50.0000001 1e-07 0 2 1 -2 
2 -9.99999993922529e-08 49.9999999 -1e-07 25.0000001 50.0000001 1e-07 1 12 2 1 -3 
3 -1e-07 -1.000000011686097e-07 -1e-07 1e-07 50.0000001 1e-07 1 10 2 3 -4 
4 -9.99999993922529e-08 -1e-07 -1e-07 25.0000001 1e-07 1e-07 1 11 2 4 -2 
5 24.9999999 49.9999999 -1e-07 50.0000001 50.0000001 1e-07 1 12 2 5 -1 
6 24.9999999 -1e-07 -1e-07 50.0000001 1e-07 1e-07 1 11 2 2 -6 
7 49.9999999 -1.000000011686097e-07 -1e-07 50.0000001 50.0000001 1e-07 1 10 2 6 -5 
1 -9.99999993922529e-08 -1.000000011686097e-07 -1e-07 25.0000001 50.0000001 1e-07 1 1 4 -4 -3 -2 1 
2 24.9999999 -1.000000011686097e-07 -1e-07 50.0000001 50.0000001 1e-07 1 2 4 -7 -6 -1 -5 
$EndEntities
$Nodes
15 15 1 15
0 1 0 1
1
25 50 0
0 2 0 1
2
25 0 0
0 3 0 1
3
0 50 0
0 4 0 1
4
0 0 0
0 5 0 1
5
50 50 0
0 6 0 1
6
50 0 0
1 1 0 1
7
25 25 0
1 2 0 1
8
12.5 50 0
1 3 0 1
9
0 25 0
1 4 0 1
10
12.5 0 0
1 5 0 1
11
37.5 50 0
1 6 0 1
12
37.5 0 0
1 7 0 1
13
50 25 0
2 1 0 1
14
12.5 25 0
2 2 0 1
15
37.5 25 0
$EndNodes
$Elements
14 26 1 26
0 1 15 1
1 1 
0 2 15 1
2 2 
0 3 15 1
3 3 
0 4 15 1
4 4 
0 5 15 1
5 5 
0 6 15 1
6 6 
1 2 1 2
7 1 8 
8 8 3 
1 3 1 2
9 3 9 
10 9 4 
1 4 1 2
11 4 10 
12 10 2 
1 5 1 2
13 5 11 
14 11 1 
1 6 1 2
15 2 12 
16 12 6 
1 7 1 2
17 6 13 
18 13 5 
2 1 3 4
19 1 8 14 7 
20 3 9 14 8 
21 4 10 14 9 
22 2 7 14 10 
2 2 3 4
23 6 13 15 12 
24 5 11 15 13 
25 1 7 15 11 
26 2 12 15 7 
$EndElements
